<svg version="1.2" xmlns="http://www.w3.org/2000/svg" viewBox="41.99999999999998 22 391.99999999999994 85" width="1000" height="216">
	<defs>
		<radialGradient id="g1" cx="0" cy="0" r="1" gradientUnits="userSpaceOnUse" gradientTransform="matrix(9.775,0,0,9.599,57.79,41.463)">
			<stop offset="0" stop-color="#ffffff"/>
			<stop offset=".006" stop-color="#fefefe"/>
			<stop offset="1" stop-color="#8390c7"/>
		</radialGradient>
		<radialGradient id="g2" cx="0" cy="0" r="1" gradientUnits="userSpaceOnUse" gradientTransform="matrix(9.586,0,0,9.586,57.785,41.552)">
			<stop offset="0" stop-color="#ffffff"/>
			<stop offset=".006" stop-color="#ffffff"/>
			<stop offset="1" stop-color="#064da1"/>
		</radialGradient>
	</defs>
	<style>
		.s0 { fill: url(#g1) } 
		.s1 { fill: #064da1 } 
		.s2 { fill: url(#g2) } 
		.s3 { fill: #ec1c24 } 
		.s4 { fill: #0646a5 } 
	</style>
	<g id="Layer 1">
		<g id="&lt;Group&gt;">
			<g id="&lt;Group&gt;">
			</g>
			<g id="&lt;Group&gt;">
				<path id="&lt;Path&gt;" class="s0" d="m57.79 51.06c-5.41 0-9.77-4.29-9.77-9.6 0-5.31 4.36-9.6 9.77-9.6 5.41 0 9.78 4.29 9.78 9.6 0 5.31-4.37 9.6-9.78 9.6z"/>
				<path id="&lt;Compound Path&gt;" class="s1" d="m112.18 95.1q-1.15 0.75-2.25 0.75-5.43 0-14.02-8.71-5.65-5.68-8.42-7.58-2.61-1.76-6.44-2.29 7.72-2.56 7.72-11.69-0.01-5.38-2.95-9.04-2.97-3.7-9.02-3.7-2.16 0-5.6 0.27-3.01 0.2-5.67 0.2v46.52h1.29q3.44 0 8.74 0.54v-0.81q-6.36-0.93-6.35-11.45v-10.44q2.6 0.83 5.34 2.9 2.56 2.03 7.87 7.67 3.61 3.87 6.19 6.32 2.58 2.44 4.25 3.63 3.13 2.18 7.41 2.18 1.46 0 2.96-0.54v-0.4q-3.22 0-6.75-2.74-3.48-2.73-9.26-8.72-8.21-8.58-13.03-10.08 7.77 0 15.99 8.45 6.83 6.96 10.26 9.34 3.66 2.51 7.02 2.51 3.13 0 4.9-2.29zm-42.98-20.04v-9.57q0-6.7 0.8-8.47 1.76-1.28 4.95-1.27 9.85-0.01 9.85 9.65 0 10.33-9.94 10.33-3.05 0-5.66-0.67z"/>
				<path id="&lt;Compound Path&gt;" class="s2" d="m54.4 40.54l0.08-0.18-0.08-0.21 0.1-0.24 0.09-0.24 0.1-0.28-0.07-0.22 0.01-0.18 0.21-0.41 0.14-0.17 0.1-0.21 0.02-0.03 0.21-0.18 0.17-0.1 0.32-0.09 0.08-0.16 0.03-0.19v-0.14h0.1l0.08-0.19 0.02-0.17 0.3 0.02 0.08-0.13 0.07-0.09 0.09-0.02 0.12 0.04 0.19 0.03h0.11l0.05-0.01 0.33-0.14 0.44-0.05 0.46-0.02 0.34-0.05 0.3-0.01 0.03 0.13 0.09 0.03 0.01 0.06-0.07 0.1-0.02 0.06 0.07 0.06 0.1 0.1 0.09 0.02 0.33 0.03h0.02l0.11 0.28h0.16l0.12 0.05 0.18 0.16 0.13-0.04 0.09-0.07v-0.04l0.01-0.09 0.07-0.12 0.09-0.07 0.12 0.01 0.08 0.08h0.2l0.11 0.04 0.11 0.05 0.11 0.01h0.18l0.14 0.03 0.13-0.01h0.11l0.03-0.07h0.2l0.09 0.07h0.27l0.04-0.05-0.05-0.11v-0.08l0.05-0.11v-0.06l-0.02-0.25-0.08-0.07 0.1-0.04-0.01-0.08-0.09-0.02-0.08 0.07-0.06 0.04-0.14-0.06-0.08 0.02-0.22 0.01v-0.06l-0.08 0.07-0.15-0.03-0.13-0.04-0.04 0.06-0.04 0.01-0.01-0.05-0.08-0.17-0.09-0.01-0.06-0.06-0.17-0.21 0.03-0.08-0.05-0.07-0.18-0.01-0.09 0.08-0.01 0.05 0.05 0.16 0.04 0.08v0.07l0.03 0.09-0.06 0.01-0.07-0.03-0.02-0.13-0.07-0.07h-0.03l-0.07 0.08-0.07-0.01-0.07-0.15-0.03-0.03-0.16-0.08v-0.13l-0.04-0.13-0.11-0.07-0.17-0.08-0.11-0.08-0.22-0.05-0.07-0.07-0.09-0.11-0.27-0.08-0.02 0.08 0.05 0.07 0.03 0.01 0.07 0.03 0.04 0.08 0.03 0.05 0.07 0.03 0.06 0.07 0.08 0.05 0.16 0.04 0.08 0.03 0.09 0.08 0.08 0.03 0.07 0.07 0.01 0.08-0.05 0.01-0.08-0.07v0.03 0.1l-0.08 0.03-0.06 0.03-0.06 0.03h-0.08l0.04-0.08 0.03-0.02-0.05-0.13-0.17-0.02-0.06-0.07-0.15-0.04-0.05-0.06-0.15-0.06-0.06-0.11-0.15-0.22-0.09-0.08-0.03 0.06-0.09 0.09-0.07 0.05-0.09 0.07-0.13-0.01h-0.25-0.07l-0.02 0.09-0.02 0.07-0.15 0.06-0.07 0.04-0.1 0.15-0.12 0.07-0.07 0.07 0.06 0.14-0.07 0.08-0.32 0.14-0.12 0.01h-0.35l0.04 0.13h-0.07l-0.06-0.08-0.07-0.07h-0.2l-0.07-0.01 0.04-0.07-0.06-0.12 0.03-0.15 0.09-0.14 0.03-0.08v-0.14l-0.02-0.09 0.15-0.2h0.16l0.1 0.03h0.31l0.16 0.03 0.07-0.03 0.05-0.04 0.03-0.08 0.03-0.11-0.03-0.1-0.1-0.11q-0.02-0.05-0.07-0.07c-0.03-0.03-0.09-0.02-0.13-0.04q-0.04-0.01-0.07-0.04-0.02-0.04 0.01-0.09 0.04-0.03 0.1-0.03 0.05-0.01 0.09 0c0.04 0 0.07 0.03 0.1 0.03q0.04-0.01 0.07-0.03c0.03-0.02 0.03-0.07 0.05-0.08q0.06 0 0.11 0 0.11 0 0.21-0.07 0.03-0.04 0.06-0.08 0.05-0.04 0.11-0.06 0.05-0.02 0.09-0.05 0.01-0.02 0.03-0.04 0.05-0.06 0.12-0.1c0.08-0.04 0.18 0.04 0.26 0q0.06-0.03 0.09-0.09 0.01-0.04 0-0.07-0.01-0.02-0.01-0.04 0-0.03 0-0.06-0.03-0.01-0.05-0.03-0.01-0.03-0.01-0.06 0-0.03 0.01-0.05 0.03-0.02 0.07-0.03 0.04-0.02 0.07-0.05c0.03 0 0.05-0.05 0.07-0.02q0.02 0.03-0.01 0.05 0 0.01-0.01 0.02-0.03 0.02-0.05 0.05c0 0.04 0.07 0.03 0.07 0.07 0.01 0.02-0.03 0.04-0.03 0.06q-0.01 0.04 0.01 0.07 0.04 0.02 0.07 0.01 0.09 0 0.17 0 0.01 0 0.02 0 0.08-0.02 0.15 0.01 0.03 0.03 0.06 0.06 0.05 0.01 0.1-0.03 0.02-0.01 0.03-0.03 0.05-0.03 0.09-0.04 0.05-0.01 0.1 0 0.04 0.01 0.08 0.03 0.01 0.02 0.04 0.04 0.02 0 0.03-0.01c0.04-0.02 0.01-0.08 0.04-0.1 0.03-0.02 0.1 0.05 0.11-0.01q0-0.03-0.03-0.05-0.02-0.04-0.05-0.07-0.05-0.1 0-0.2 0.04-0.04 0.09-0.07 0.04-0.04 0.1-0.06 0.05 0 0.1 0.01 0.05 0 0.09-0.01 0.04-0.01 0.06-0.04 0-0.02 0-0.04 0-0.03-0.01-0.05-0.04-0.02-0.08 0-0.04 0.01-0.08 0.03-0.04 0.01-0.09 0.02-0.06 0.02-0.12 0.01-0.04 0-0.08 0c-0.05 0-0.1 0.04-0.14 0-0.04-0.03-0.01-0.1-0.04-0.13-0.02-0.02-0.07-0.01-0.09-0.04q-0.04-0.04-0.03-0.09 0.02-0.04 0.06-0.07 0.04-0.02 0.06-0.04 0.02-0.05-0.01-0.1-0.02-0.04-0.07-0.06-0.02 0-0.05 0-0.02 0.02-0.03 0.05-0.01 0.04-0.03 0.07-0.01 0.03-0.03 0.05-0.03 0.01-0.05 0.02c-0.02 0.02 0.02 0.05 0 0.07q-0.02 0.01-0.04 0.01c-0.05 0.01-0.12 0.03-0.12 0.09q0.01 0.06 0.07 0.09 0.04 0.02 0.08 0.04 0.02 0.02 0.05 0.04 0.03 0.02 0.07 0.02c0.03 0.01 0.06 0 0.07 0.02q0.01 0.03-0.02 0.07-0.04 0.03-0.09 0.03-0.02 0.01-0.03 0.01c-0.04 0.03-0.01 0.07-0.01 0.11q0 0.04 0.01 0.08 0 0.02 0 0.03c-0.01 0.03-0.05 0.03-0.08 0.04q-0.04 0-0.07 0.01-0.06 0.01-0.12 0.04-0.07 0.01-0.12 0.04c-0.02 0.02-0.02 0.06-0.05 0.06q-0.03 0-0.03-0.02 0.01-0.01 0.03-0.01 0.05-0.04 0.05-0.11-0.01-0.04-0.03-0.08-0.01-0.08-0.05-0.16-0.02-0.05-0.07-0.07-0.06-0.03-0.12 0.02-0.02 0.03-0.04 0.06c-0.06 0.08-0.18 0.07-0.27 0.02q-0.02-0.01-0.03-0.03-0.04-0.04-0.06-0.08-0.02-0.05-0.03-0.1-0.02-0.05-0.02-0.1-0.01-0.03-0.01-0.07c0.01-0.12 0.23 0.06 0.25-0.06 0.01-0.04-0.08-0.08-0.04-0.12 0.03-0.02 0.07 0.03 0.1 0.02q0.06-0.02 0.09-0.08c0.02-0.04-0.02-0.11 0.02-0.13q0.03-0.01 0.06-0.01 0.04-0.01 0.07-0.05 0.01-0.04 0-0.07 0.03-0.06 0.1-0.08 0.06-0.02 0.13-0.04 0.04-0.03 0.08-0.07 0.04-0.04 0.08-0.05 0.08-0.01 0.14 0.02 0.13 0.03 0.25 0.05 0.04 0.01 0.07 0.01 0.16 0.03 0.34 0.05c0.08 0.01 0.19-0.07 0.26 0.01 0.03 0.03 0.02 0.08 0.04 0.12q0.03 0.03 0.05 0.07 0.01 0.02 0 0.04c-0.02 0.03-0.06 0-0.08 0q-0.06-0.02-0.12-0.03-0.04-0.01-0.07 0.01c-0.02 0.03 0.04 0.04 0.06 0.05q0.05 0.02 0.08 0.04 0.02 0.04 0.04 0.07 0.05 0.01 0.1 0.01c0.02 0 0.06 0.03 0.07 0 0-0.02-0.04-0.02-0.04-0.04-0.02-0.07 0.08 0.03 0.09-0.01q0.01-0.02 0-0.04 0-0.01-0.01-0.03c0-0.04 0.06-0.03 0.08-0.06 0.02-0.03 0.01-0.08 0.04-0.1q0.03 0 0.06-0.02c0.25-0.17-0.13 0-0.17-0.04q-0.03-0.03-0.03-0.06c0.02-0.05 0.07-0.02 0.1-0.01 0.04 0 0.06 0.03 0.1 0.03 0.05-0.01 0.05-0.09 0.1-0.11q0.04 0 0.09 0c0.04 0 0.12 0.01 0.11-0.06-0.01-0.03-0.06-0.03-0.09-0.04q-0.08-0.02-0.15-0.04-0.06-0.02-0.11-0.05-0.04-0.04-0.09-0.08c-0.05-0.04-0.15-0.03-0.19-0.09q-0.01 0-0.01-0.01c3.41 0.8 6.12 3.34 7.09 6.6q-0.01 0.07-0.02 0.14-0.02 0.13-0.02 0.26c0.01 0.17 0.12 0.31 0.16 0.47q0.01 0.09 0.03 0.18 0.02 0.06 0.04 0.12 0.04 0.14 0.05 0.29 0.01 0.14-0.01 0.29-0.02 0.1-0.02 0.19c-0.01 0.06 0.09 0.16 0 0.18-0.05 0.01-0.09-0.04-0.11-0.08q-0.05-0.07-0.05-0.16 0-0.09 0-0.17-0.03-0.16-0.08-0.31-0.01-0.09-0.05-0.18c-0.02-0.04-0.07-0.07-0.09-0.12q-0.03-0.08-0.03-0.16 0-0.02 0.01-0.05 0-0.09 0-0.19 0-0.01 0-0.03c-0.01-0.07-0.1-0.09-0.12-0.14q0-0.03 0-0.06-0.01-0.02-0.01-0.03-0.05-0.16-0.1-0.33-0.02-0.06-0.03-0.14 0-0.03 0-0.07c0-0.02 0.02-0.05-0.01-0.06q-0.02 0-0.04 0.02c-0.02 0.02-0.01 0.06-0.03 0.07q-0.03 0.01-0.05 0-0.03-0.01-0.04-0.03-0.02-0.02-0.03-0.02-0.06-0.04-0.1-0.09-0.05-0.05-0.04-0.12c0.01-0.04 0.09-0.03 0.08-0.08q-0.01-0.02-0.03-0.04c-0.02-0.02-0.05 0-0.07-0.03q0-0.02 0-0.04c-0.01-0.03-0.05-0.02-0.07-0.03q-0.02-0.02-0.05-0.04-0.01-0.05-0.04-0.08-0.04-0.02-0.07-0.02c-0.06-0.04 0.01-0.19-0.09-0.16q-0.02 0.02-0.05 0.04-0.06 0.03-0.12 0.04-0.03 0-0.06 0-0.03 0-0.06 0-0.06-0.02-0.12-0.03-0.05-0.01-0.09-0.01-0.03 0-0.05-0.01-0.07 0.01-0.12-0.02-0.04-0.02-0.06-0.05-0.01-0.02-0.02-0.05-0.02-0.03-0.06-0.04-0.02-0.01-0.06-0.01-0.03 0.02-0.04 0.05 0 0.03-0.01 0.05-0.02 0-0.04-0.01-0.13-0.03-0.23-0.1c-0.05-0.04-0.07-0.12-0.13-0.14q-0.02 0-0.04 0-0.03-0.03-0.05-0.07-0.05-0.07-0.12-0.13-0.04-0.04-0.09-0.07-0.03-0.04-0.07-0.07-0.02-0.01-0.05-0.01c-0.04 0.01-0.04 0.06-0.06 0.09q-0.02 0.01-0.04 0.03-0.02-0.01-0.05 0-0.04 0.01-0.05 0.05c0 0.05 0.08 0.02 0.11 0.05q0.04 0.03 0.06 0.07 0.08 0.08 0.15 0.15 0.04 0.04 0.08 0.08 0.04 0.05 0.07 0.1 0.05 0.08 0.14 0.11 0.03 0.02 0.05 0.01c0.03-0.02-0.01-0.05 0.01-0.07q0.04-0.02 0.09 0.03c0.03 0.02 0.04 0.07 0 0.1-0.02 0.02-0.05-0.01-0.07 0-0.03 0.03 0 0.07 0.01 0.1q0 0.05 0.04 0.08 0.02 0 0.04 0c0.07 0 0.13 0.02 0.19 0q0.05-0.02 0.07-0.06 0.02-0.03 0.02-0.07-0.01-0.06 0-0.13c0.01-0.03 0.01-0.08 0.05-0.07q0.03 0.01 0.04 0.02 0.04 0.03 0.06 0.06 0.02 0.04 0.04 0.09 0.02 0.04 0.06 0.08 0.03 0.06 0.08 0.1c0.04 0.04 0.11 0.02 0.15 0.06q0.07 0.06 0.09 0.15 0 0.03 0 0.05 0 0.03 0 0.06c0 0.06 0.02 0.13-0.01 0.2q-0.02 0.01-0.03 0.04 0 0.05 0.02 0.09 0.02 0.04 0.03 0.08-0.02 0.03-0.05 0.06-0.03 0.04-0.05 0.1-0.01 0.04-0.04 0.08-0.03 0.02-0.06 0.05-0.02 0.04-0.03 0.08 0 0.04-0.02 0.06-0.03 0.01-0.06 0-0.04 0-0.06 0c-0.09 0.03-0.03 0.13-0.06 0.19-0.06 0.17-0.22 0.28-0.35 0.41q-0.06 0.07-0.13 0.13-0.07 0.03-0.15 0.06-0.1 0.05-0.2 0.11-0.02 0.01-0.04 0.02l-0.09-0.1-0.07-0.1-0.05-0.17q-0.04-0.05-0.05-0.11-0.01-0.06 0-0.13 0.02-0.09-0.01-0.18-0.02-0.07-0.08-0.1-0.02 0-0.05 0-0.04 0.01-0.07 0-0.02-0.02-0.04-0.06-0.01-0.02-0.01-0.05-0.02-0.08-0.06-0.16-0.03-0.05-0.07-0.08c-0.04-0.04-0.12-0.02-0.16-0.06q-0.06-0.05-0.09-0.12-0.02-0.05-0.03-0.1-0.01-0.06-0.02-0.12c-0.02-0.06 0-0.13-0.05-0.17-0.03-0.03-0.08-0.03-0.11-0.06-0.03-0.03-0.02-0.07-0.05-0.1-0.04-0.05-0.15 0-0.18-0.07q0-0.05 0-0.1c-0.01-0.06-0.07-0.1-0.1-0.16q-0.02-0.04-0.04-0.07-0.03-0.05-0.05-0.09-0.06-0.05-0.11-0.1-0.01-0.04-0.02-0.08-0.01-0.02-0.01-0.06 0-0.02 0-0.05c-0.01-0.03 0.02-0.09-0.03-0.09q-0.01 0.01-0.02 0.01-0.01 0.01-0.01 0.02-0.01 0.03-0.01 0.05 0 0.06 0 0.11 0.01 0.03 0 0.06 0 0 0 0.01-0.02 0.01-0.04 0-0.03-0.02-0.05-0.04c-0.06-0.03-0.04-0.06-0.14-0.09q-0.05-0.05-0.09-0.1c-0.04-0.05-0.1 0.01-0.07 0.06 0.11 0.05 0.25 0.08 0.27 0.21q0.02 0.02 0.03 0.04c0.02 0.1 0.16 0.14 0.18 0.24q0 0.03 0.01 0.06 0.02 0.06 0.06 0.11 0.02 0.03 0.03 0.06 0.02 0.08 0.02 0.17c0.01 0.05-0.01 0.12 0.03 0.17 0.05 0.07 0.17 0.01 0.21 0.09q0.02 0.03 0.03 0.08c0.04 0.12 0.07 0.25 0.13 0.36q0.06 0.13 0.17 0.23 0.07 0.03 0.12 0.07c0.05 0.05 0.02 0.13 0.03 0.19 0.02 0.07 0.02 0.15 0.08 0.2 0.04 0.05 0.11 0.04 0.17 0.07q0.11 0.08 0.19 0.18 0.1 0.1 0.2 0.19 0.04 0.04 0.07 0.08-0.01 0.02-0.01 0.03 0.02 0.04 0.06 0.06 0.03 0.02 0.06 0.05c0.03 0.05-0.08 0.16 0.02 0.17q0.03 0 0.07-0.03 0.04-0.03 0.08-0.06 0.03-0.02 0.06-0.04c0.05-0.03 0.11 0 0.16-0.03q0.03-0.03 0.07-0.06 0.06-0.04 0.13-0.05c0.06-0.01 0.13 0.02 0.19-0.01q0.03-0.01 0.06-0.02 0.02-0.03 0.06-0.03c0.02 0.01 0 0.04 0 0.06q0.01 0.08 0 0.15-0.03 0.09-0.05 0.17-0.02 0.11-0.02 0.22c-0.01 0.1 0 0.2-0.03 0.3q-0.03 0.08-0.08 0.15-0.05 0.06-0.09 0.12c-0.02 0.05-0.01 0.1-0.03 0.15q-0.04 0.06-0.09 0.12-0.05 0.11-0.08 0.22-0.03 0.09-0.06 0.17c-0.06 0.11-0.17 0.18-0.26 0.27-0.09 0.09-0.21 0.17-0.3 0.27q-0.06 0.08-0.12 0.16c-0.05 0.05-0.11 0.08-0.15 0.13-0.05 0.07-0.04 0.15-0.08 0.22-0.04 0.08-0.13 0.12-0.16 0.21-0.06 0.13 0.01 0.27 0 0.41-0.01 0.11-0.06 0.22-0.07 0.33 0 0.05-0.03 0.1 0.01 0.13q0.04 0.02 0.08 0.02 0.03 0.03 0.04 0.06 0.03 0.09-0.01 0.17-0.04 0.07-0.09 0.12c-0.08 0.14-0.02 0.31-0.06 0.46 0 0.06 0 0.13-0.04 0.19q-0.04 0.04-0.09 0.07-0.06 0.05-0.12 0.09-0.05 0.04-0.1 0.07c-0.05 0.03-0.11 0.02-0.16 0.04-0.1 0.04-0.17 0.13-0.25 0.19-0.06 0.04-0.14 0.05-0.18 0.11-0.04 0.06 0.02 0.15-0.03 0.21-0.03 0.03-0.09 0.03-0.1 0.07q-0.01 0.03 0 0.07 0 0.11-0.02 0.23-0.02 0.07-0.03 0.14 0 0.05-0.01 0.09-0.03 0.03-0.07 0.04-0.05 0.01-0.09 0.02c-0.05 0.01-0.08 0.06-0.13 0.08-0.06 0.02-0.14-0.03-0.18 0.03-0.04 0.04-0.01 0.09-0.02 0.14q-0.02 0.15-0.11 0.28-0.05 0.06-0.11 0.1-0.04 0.04-0.08 0.08-0.05 0.03-0.09 0.07-0.02 0.02-0.04 0.05-0.03 0.07-0.09 0.15-0.03 0.03-0.08 0.06c-0.07 0.05-0.17 0.04-0.22 0.1q-0.02 0.02-0.04 0.04-0.02 0.03-0.04 0.06-0.04 0.03-0.08 0.05c-0.05 0.03-0.11 0.01-0.16 0.01-0.05 0.01-0.12-0.02-0.16 0.02q-0.02 0.02-0.04 0.04c-0.04 0.03-0.08 0-0.13 0q-0.11-0.01-0.22 0-0.06 0-0.12 0.03-0.02 0.02-0.05 0.04-0.04 0.01-0.06 0-0.13-0.02-0.22-0.11-0.02-0.02-0.04-0.04c-0.02-0.02-0.07 0-0.09-0.04q-0.01-0.02 0-0.05 0.02-0.02 0.05-0.03 0.01-0.02 0.02-0.04 0-0.03-0.01-0.06 0.01-0.07 0-0.15-0.01-0.09-0.06-0.17-0.03-0.06-0.06-0.11-0.01-0.06-0.03-0.1c-0.03-0.05-0.09-0.06-0.12-0.1q-0.04-0.09-0.03-0.19 0-0.04 0.01-0.09 0-0.04 0-0.08 0-0.04 0-0.07 0.01-0.04 0.02-0.08 0.01-0.05 0-0.11 0-0.04 0-0.08 0-0.04-0.02-0.07-0.03-0.02-0.07-0.03-0.03-0.01-0.06-0.04c-0.02-0.02-0.01-0.07-0.03-0.1q-0.01-0.02-0.03-0.05-0.01-0.02-0.03-0.04-0.02-0.01-0.04-0.02 0-0.01-0.01-0.02c-0.06-0.1-0.01-0.21 0-0.32q0-0.08 0.01-0.17 0.03-0.14 0.07-0.27 0.02-0.06 0.04-0.11 0.01-0.07 0.03-0.15 0.02-0.06 0.07-0.11 0.05-0.03 0.1-0.06 0.04-0.03 0.07-0.08 0.02-0.04 0.03-0.07 0.04-0.16-0.02-0.3-0.02-0.02-0.04-0.06c-0.01-0.06 0.08-0.06 0.1-0.1q0.06-0.08 0.03-0.16c-0.04-0.09-0.19 0.02-0.23-0.07-0.01-0.02 0.02-0.06 0-0.09q-0.03-0.01-0.06-0.02c-0.15-0.07-0.01-0.3-0.13-0.39-0.05-0.04-0.12-0.04-0.18-0.08-0.11-0.07-0.13-0.22-0.22-0.31q-0.03-0.03-0.06-0.06-0.11-0.14-0.03-0.29c0.03-0.06 0.12-0.07 0.14-0.13q0.02-0.08 0.01-0.16c0.01-0.11 0.04-0.23 0.02-0.35q-0.01-0.09-0.05-0.16-0.04-0.07-0.11-0.1-0.02 0-0.05 0-0.07-0.01-0.14-0.03c-0.09-0.01-0.2-0.09-0.26 0q-0.01 0.02-0.02 0.05c-0.06 0.07-0.15 0.01-0.2-0.04-0.05-0.05-0.01-0.13-0.01-0.19-0.01-0.06 0.03-0.13-0.03-0.16-0.04-0.03-0.08 0-0.13 0q-0.08 0-0.17 0c-0.08 0-0.18-0.05-0.25 0q-0.05 0.02-0.08 0.06-0.02 0.04-0.06 0.07c-0.04 0.03-0.09 0-0.13 0q-0.06 0-0.12 0.01c-0.06 0.02-0.08 0.09-0.14 0.11q-0.07 0.03-0.13 0.01-0.04-0.01-0.07-0.02-0.06-0.01-0.11-0.02-0.06-0.02-0.13-0.04-0.07-0.03-0.14-0.03-0.04 0.01-0.07 0.02-0.05 0.03-0.09 0.07-0.07 0.03-0.15 0.04-0.08 0.03-0.15 0.04-0.07 0.01-0.14-0.02-0.02-0.01-0.04-0.03c-0.08-0.06-0.15-0.14-0.25-0.17q-0.06 0-0.11-0.01-0.14-0.03-0.24-0.11c-0.05-0.05-0.06-0.12-0.1-0.17q-0.02-0.04-0.06-0.06c-0.03-0.02-0.07 0.01-0.1-0.01q-0.04-0.02-0.06-0.05c-0.06-0.08-0.04-0.18-0.06-0.27q-0.02-0.04-0.04-0.09-0.02-0.06-0.07-0.12-0.03-0.04-0.07-0.06c-0.02-0.01-0.05 0-0.07-0.02-0.02-0.03 0.02-0.06 0.01-0.08q-0.03-0.08-0.11-0.08zm8.56 9.08q-0.14 0.01-0.3 0.01c-0.08 0-0.18-0.02-0.27 0-0.08 0.03-0.15 0.09-0.23 0.13q-0.15 0.05-0.3 0.09-0.18 0.05-0.36 0.11-0.1 0.07-0.2 0.13c-0.21 0.09-0.45 0.03-0.68 0.03q-0.33 0.01-0.66 0-0.22 0-0.44-0.01-0.29-0.01-0.58-0.01-0.2-0.01-0.4 0.01-0.12 0.02-0.23 0.04c-0.15 0.01-0.29-0.02-0.44-0.03q-0.07 0.01-0.14 0c-0.1 0-0.19-0.03-0.3-0.03-0.12-0.01-0.25-0.05-0.35 0.02-0.08 0.06-0.08 0.18-0.14 0.25q-0.03 0.05-0.07 0.08c-0.09 0.08-0.21 0.06-0.32 0.07q-0.19 0.02-0.36-0.03c-0.09-0.02-0.16-0.1-0.24-0.13-0.15-0.04-0.3-0.07-0.44-0.01q-0.04 0.02-0.08 0.04-0.04 0-0.07 0c-0.14-0.01-0.26-0.08-0.39-0.1q-0.05 0.01-0.1-0.01-0.05-0.03-0.09-0.08-0.08-0.07-0.19-0.1c-0.05-0.01-0.1 0.02-0.15 0q-0.02-0.02-0.04-0.03-0.06-0.05-0.12-0.1-0.13-0.05-0.26-0.01l-0.07 0.07-0.04 0.1-0.01 0.17c1.19 0.5 2.5 0.77 3.88 0.77 1.9 0 3.68-0.52 5.18-1.44zm-9.25 0.58q0.01-0.09-0.03-0.18-0.02-0.02-0.03-0.04c-0.08-0.11-0.24-0.09-0.34-0.17q-0.11-0.07-0.19-0.17-0.01-0.05-0.04-0.1c-0.04-0.05-0.12-0.02-0.17-0.06q-0.03-0.04-0.06-0.08-0.04-0.05-0.08-0.1c-0.06-0.08-0.16-0.14-0.16-0.24q0-0.04 0-0.06c-0.03-0.09-0.14 0-0.2-0.02q-0.02-0.01-0.04-0.01c-0.02-0.02-0.08-0.05-0.04-0.06q0.02-0.01 0.04 0 0.03 0.02 0.05 0 0.02-0.02 0-0.04-0.01-0.04-0.03-0.06-0.02-0.03-0.03-0.06-0.01-0.04 0.01-0.07c0.03-0.07 0.18 0.07 0.19-0.03q0-0.03 0-0.06-0.04-0.07-0.08-0.12-0.02-0.07-0.06-0.13-0.03-0.02-0.06-0.04-0.04-0.02-0.08-0.04-0.03-0.02-0.06-0.04c-0.03-0.01-0.07 0-0.08-0.03q-0.01-0.01 0-0.04 0.02-0.02 0.06-0.01c0.06 0.01 0.09 0.07 0.15 0.08q0.02 0 0.05 0.01 0.05 0.01 0.1 0 0.04-0.01 0.06-0.04c0.02-0.03-0.02-0.05-0.02-0.08q-0.02-0.05-0.03-0.1c-0.04-0.19 0-0.39-0.01-0.58q0.01-0.07 0-0.13-0.01-0.11-0.04-0.21-0.03-0.07-0.04-0.15 0.02-0.08 0.08-0.15 0.06-0.04 0.12-0.07 0.05-0.05 0.1-0.1c0.08-0.06 0.19-0.02 0.28-0.06q0.03-0.02 0.07-0.05 0.06-0.05 0.1-0.13 0.02-0.07 0.01-0.14 0.01-0.08 0-0.16 0-0.03 0-0.07 0-0.03 0.01-0.06 0.02-0.03 0.04-0.07 0.01-0.04-0.01-0.09 0-0.1-0.02-0.2-0.01-0.05-0.03-0.1-0.01-0.11 0-0.22 0-0.08 0.02-0.16 0.03-0.04 0.07-0.08 0.03-0.02 0.06-0.05 0.01-0.04 0.02-0.09 0.01-0.07 0.05-0.14 0.03-0.03 0.06-0.07c0.13-0.19 0.16-0.43 0.17-0.66 0-0.09 0.06-0.2-0.02-0.29q-0.06-0.04-0.13-0.06-0.07-0.01-0.13-0.02-0.17-0.03-0.27-0.17c-0.02-0.04-0.02-0.09-0.05-0.13-0.07-0.08-0.18-0.06-0.28-0.06q-0.05-0.01-0.1 0.01c-0.02 0.01-0.02 0.05-0.05 0.05q-0.01 0.01-0.03 0c-0.07 0-0.07-0.12-0.14-0.13q-0.06-0.02-0.11 0c-0.04 0-0.06 0.06-0.1 0.04q-0.03-0.03-0.04-0.06c-0.03-0.05-0.1-0.07-0.13-0.12q-0.03-0.04-0.05-0.08-0.01-0.03-0.02-0.05-0.03-0.06-0.09-0.08-0.02 0-0.05 0-0.02 0-0.04-0.01c-0.06-0.01-0.11-0.05-0.16-0.05q-0.05-0.01-0.09 0.01-0.05 0.02-0.07 0.06 0 0.04 0 0.08c-0.02 0.08-0.1 0.12-0.19 0.13q-0.03 0-0.07-0.01c-0.16-0.05-0.09-0.23 0-0.32q0.03-0.02 0.05-0.04 0.03-0.03 0.04-0.07 0.01-0.04 0.01-0.08 0.01-0.04 0.03-0.08c0.01-0.11-0.12-0.16-0.15-0.24-0.03-0.08-0.01-0.17-0.05-0.25q-0.02-0.04-0.05-0.08-0.05-0.09-0.1-0.18-0.02-0.07-0.06-0.13-0.03-0.03-0.08-0.06c-0.08-0.03-0.16 0.01-0.24 0.01q-0.06 0.01-0.12 0-0.06-0.01-0.1-0.05-0.03-0.03-0.06-0.07-0.03-0.03-0.06-0.08-0.02-0.02-0.04-0.05-0.04-0.04-0.06-0.09 0-0.03-0.01-0.06-0.02-0.05-0.06-0.09-0.01-0.02-0.02-0.04c-0.02-0.01-0.05 0.02-0.06 0-0.04-0.03 0.01-0.06 0.02-0.09 0.01-0.03 0.04-0.05 0.02-0.08-0.01-0.02-0.04-0.02-0.06-0.04-0.03-0.04 0.03-0.08 0.06-0.11 0.04-0.04 0.18 0 0.14-0.08q-0.02-0.02-0.04-0.04c-0.05-0.02-0.08 0.05-0.13 0.06-0.07 0.03-0.15 0.08-0.22 0.03-0.07-0.05 0.04-0.18-0.05-0.2q-0.03-0.01-0.07 0c-0.07 0.03 0.04 0.11 0 0.16-0.02 0.02-0.04 0.07-0.08 0.05q-0.02-0.01-0.03-0.02c-0.04-0.03-0.03-0.13-0.1-0.12q-0.03 0.02-0.06 0.04-0.02 0.02-0.06 0.02-0.02-0.01-0.03-0.05 0-0.02 0-0.03c-0.01-0.05-0.01-0.14-0.09-0.14q-0.03 0.02-0.07 0.05c-0.02 0.01-0.05 0.04-0.08 0.01q-0.02-0.03 0-0.06 0.02-0.04 0.04-0.08c0.02-0.03 0.06-0.05 0.04-0.08-0.02-0.05-0.08-0.02-0.11 0-0.04 0.02-0.04 0.08-0.08 0.11-0.07 0.06-0.19 0.01-0.25 0.09-0.04 0.06 0 0.14-0.01 0.21q-0.01 0.06-0.03 0.1-0.02 0.05-0.07 0.06c-0.06-0.01 0.01-0.08-0.01-0.12-0.02-0.04-0.07-0.1-0.12-0.07-0.03 0.01-0.02 0.04-0.05 0.06q-0.03 0.02-0.07 0.01c-0.13-0.01-0.03-0.15-0.03-0.23q0.01-0.06 0.02-0.12 0.01-0.06 0.02-0.12c0.01-0.08-0.03-0.18 0.02-0.26q0.04-0.05 0.08-0.09 0.01-0.05 0.01-0.1 0.01-0.09 0.02-0.17c0.01-0.05 0.06-0.11 0.01-0.16q-0.02-0.02-0.04-0.02-0.06-0.04-0.08-0.09 0-0.06 0.03-0.1 0.02-0.05 0.05-0.1 0.02-0.06 0.03-0.12 0.01-0.06 0.04-0.11 0.02-0.05 0.06-0.09 0.03-0.06 0.06-0.11 0.02-0.09 0.01-0.19c0-0.02 0.02-0.04 0-0.06q-0.02 0-0.04 0-0.05 0.03-0.08 0.09c-0.05 0.07-0.06 0.15-0.11 0.22q-0.02 0.04-0.05 0.07-0.1 0.32-0.18 0.65 0.01 0.05 0.01 0.09 0.01 0.18 0 0.36 0 0.07 0 0.15 0 0.07 0 0.15-0.01 0.1-0.02 0.19-0.02 0.1-0.03 0.19c-0.02 0.12-0.11 0.24-0.04 0.36q0.02 0.05 0.07 0.07 0.04 0 0.08-0.04c0.03-0.01 0.04-0.05 0.08-0.06q0.01 0 0.03 0 0.04 0.02 0.06 0.05 0.05 0.09 0.05 0.19c0.02 0.12 0 0.25 0 0.37 0.01 0.13 0.04 0.25 0.02 0.37q-0.01 0.15-0.07 0.28c-0.06 0.1-0.21 0.13-0.25 0.24-0.06 0.14 0.03 0.28 0.02 0.42 0 0.09 0.03 0.2-0.01 0.29q-0.04 0.05-0.07 0.1 0 0.01-0.01 0.01c0.58 3.1 2.7 5.68 5.57 6.95zm-4.62-13.03q0.06 0.02 0.11-0.02 0.03-0.02 0.06-0.05 0.01-0.04 0.04-0.06 0.04-0.01 0.07 0.02c0.04 0.03 0.04 0.08 0.04 0.12q-0.01 0.1-0.05 0.18-0.05 0.08-0.09 0.17-0.03 0.08-0.05 0.17-0.02 0.05-0.04 0.11-0.03 0.05-0.06 0.09-0.01 0.05 0 0.09c0.07 0.12 0.13-0.04 0.17-0.09 0.09-0.09 0.04-0.22 0.07-0.32q0.03-0.15 0.1-0.29 0.04-0.04 0.07-0.08 0.03-0.08 0.03-0.17c0.02-0.1-0.01-0.22 0.06-0.31 0.09-0.11 0.25-0.07 0.36-0.13 0.14-0.07 0.23-0.18 0.34-0.27q0.06-0.03 0.11-0.08c0.04-0.05 0.02-0.12 0.06-0.18q0.02-0.04 0.06-0.08c0.04-0.04 0.11-0.06 0.13-0.12 0.02-0.05-0.01-0.1 0.02-0.15q0.05-0.06 0.12-0.08 0.13-0.07 0.26-0.1c0.07-0.02 0.18 0.02 0.2-0.06q-0.01-0.04-0.01-0.08c0.01-0.07 0.11-0.06 0.16-0.1q0.04-0.04 0.07-0.07 0.06-0.08 0.13-0.13 0.08-0.04 0.17-0.03c0.06 0.01 0.1 0.07 0.15 0.05q0.05-0.02 0.08-0.06 0.02-0.01 0.03-0.01c0.06-0.03 0.09 0.03 0.13 0.06q0.03 0.03 0.07 0.05 0.04 0 0.07-0.03 0.01-0.03 0.03-0.07 0.02-0.03 0.06-0.04 0.05-0.01 0.09-0.03 0.02-0.02 0.02-0.05c0-0.03 0.03-0.07-0.01-0.09q-0.02 0-0.05 0.01-0.02 0.03-0.04 0.06c-0.04 0.02-0.07-0.03-0.11-0.05q-0.04-0.01-0.06-0.03-0.03-0.04 0-0.09 0.03-0.02 0.08-0.03 0.02-0.04 0.06-0.07 0.03-0.01 0.05-0.02 0.05-0.02 0.04-0.07c-0.02-0.03-0.06 0.01-0.09 0.01q-0.1 0.03-0.2 0.04c-0.03 0.01-0.06 0.03-0.09 0-0.03-0.03 0.02-0.06 0.04-0.09 0.06-0.08 0.18 0 0.27-0.04q0.03-0.03 0.07-0.05 0.05 0 0.1 0.04c0.01 0.02-0.01 0.05 0.02 0.06 0.04 0.01 0.02-0.05 0.04-0.07 0.04-0.04 0.1-0.01 0.15-0.01q0.09 0 0.18-0.01 0.09-0.03 0.18-0.08 0.04-0.02 0.07-0.01c0.03 0 0.02 0.05 0.05 0.06 0.04 0 0.04-0.05 0.06-0.07 0.05-0.05 0.14-0.05 0.18-0.11q0.02-0.04 0.02-0.07 0.01-0.04 0.02-0.07c0.01-0.05 0.06-0.09 0.05-0.15q-0.01-0.03-0.02-0.06-0.02-0.03-0.03-0.06-0.01-0.04 0.01-0.07c0.02-0.04 0.07-0.04 0.11-0.07q0.06-0.03 0.1-0.08 0.02-0.06 0.03-0.1 0.04-0.03 0.09-0.06 0.03-0.03 0.05-0.07 0.01-0.01 0.01-0.02-0.01-0.02-0.03 0c-0.08 0-0.14 0.05-0.21 0.09q-0.04 0.02-0.08 0.04-0.03 0.03-0.07 0.06-0.02 0.01-0.05 0.01c-0.04-0.03 0.01-0.05 0.02-0.08q0.04-0.05 0.09-0.08 0.08-0.04 0.14-0.09c0.02-0.02 0.02-0.06 0.05-0.08q0.03 0 0.06-0.01 0.04-0.02 0.03-0.06-0.02-0.01-0.05-0.01c-0.03-0.02-0.04-0.06-0.08-0.06q-0.05 0-0.1 0.05-0.06 0.05-0.12 0.1-0.09 0.06-0.2 0.11-0.11 0.04-0.21 0.11c-0.08 0.06-0.14 0.15-0.22 0.21-0.09 0.07-0.21 0.1-0.31 0.16q-0.16 0.09-0.32 0.19-0.07 0.04-0.14 0.1-0.02 0.04-0.05 0.07-0.03 0.01-0.06 0c-0.08-0.04 0.04-0.07 0.06-0.1q0.05-0.06 0.11-0.11 0.04-0.03 0.09-0.07 0.05-0.05 0.08-0.12c0.02-0.04-0.02-0.1 0.01-0.15 0.04-0.07 0.15-0.03 0.21-0.08q0.06-0.05 0.11-0.1 0.04-0.05 0.09-0.09c-1.58 0.9-2.88 2.23-3.72 3.81zm8.8-5.13q-0.05 0-0.11 0-0.69 0-1.36 0.09-0.02 0.02-0.04 0.04c-0.05 0.03-0.13 0.01-0.18 0.05q-0.03 0.02-0.04 0.05 0 0.03 0.02 0.06 0 0.02 0 0.05c-0.01 0.04-0.05 0.03-0.08 0.04q-0.12 0.05-0.23 0.13-0.09 0.07-0.14 0.17-0.01 0.03-0.03 0.07c-0.05 0.07-0.15-0.04-0.23 0-0.05 0.02-0.06 0.09-0.11 0.11-0.05 0.02-0.1 0-0.14 0.03q-0.06 0.06-0.06 0.14-0.01 0.02-0.01 0.04c-0.04 0.06-0.14-0.02-0.18 0.03q-0.02 0.03-0.02 0.07-0.01 0.06-0.02 0.11-0.01 0.05 0 0.09 0.02 0.04 0.06 0.05 0.04 0.04 0.09 0.05 0.04-0.01 0.07-0.04 0.04-0.02 0.08-0.03 0.06-0.01 0.1-0.05 0.01-0.01 0.02-0.03 0.01-0.02 0.03-0.04 0.02-0.02 0.04-0.05 0.04-0.02 0.08-0.04c0.05-0.02 0.12 0.01 0.16-0.04q0.02-0.04 0.04-0.08 0.01-0.04 0.04-0.08c0.03-0.03 0.09-0.02 0.14-0.03q0.09-0.01 0.18-0.01 0.06 0 0.12 0 0.03 0 0.07-0.01 0.04 0 0.08-0.02 0.02-0.01 0.03-0.02 0.02-0.01 0.04-0.02 0.02-0.02 0.04-0.03 0.04-0.03 0.08-0.05 0.02-0.01 0.04-0.01c0.07-0.03 0.14 0 0.22-0.01q0.07-0.01 0.13-0.02 0.06-0.01 0.11-0.04 0.02 0 0.03-0.01 0.03-0.01 0.05 0 0.05 0 0.09-0.01 0.03-0.02 0.04-0.04 0.01-0.04 0-0.08-0.01-0.01-0.02-0.03-0.02-0.01-0.05-0.01 0-0.01-0.01-0.02-0.02 0-0.03-0.02-0.01-0.01 0.01-0.03c0.02-0.02 0.05 0 0.07 0 0.04 0.01 0.07 0.08 0.11 0.04q0.01-0.01 0.02-0.02 0.01-0.03 0.02-0.05 0.03-0.03 0.07-0.03 0.05-0.01 0.09-0.03 0.02-0.02 0.03-0.04 0.01-0.03 0.01-0.05 0.01-0.02 0.01-0.04 0.02-0.03 0.04-0.06 0.07-0.08 0.18-0.06c0.07-0.01 0.12-0.06 0.11-0.12zm-3.36 0.53q-0.49 0.17-0.95 0.38 0.01 0 0.02-0.01 0.08-0.01 0.15-0.03 0.09-0.05 0.19-0.1 0.12-0.04 0.23-0.07 0.1-0.01 0.19-0.02 0.09-0.03 0.18-0.06 0.05-0.02 0.1-0.04 0.08-0.01 0.16-0.02 0.06-0.01 0.11-0.04 0.04-0.01 0.08-0.02 0.02-0.01 0.04-0.01 0.01 0 0.02 0.01c0.03 0.02-0.02 0.03-0.04 0.05-0.03 0.03-0.09 0.02-0.14 0.04-0.04 0.01-0.1 0.01-0.13 0.06q-0.01 0.04-0.02 0.08c-0.05 0.05-0.12 0.01-0.17 0.03q-0.06 0.02-0.12 0.03-0.09 0.02-0.17 0.06-0.03 0.03-0.06 0.06c-0.04 0.03-0.1-0.01-0.13 0.04q-0.01 0.02-0.01 0.05-0.03 0.04-0.05 0.08-0.02 0.04 0 0.08c0.02 0.02 0.05-0.01 0.07-0.02q0.07-0.04 0.14-0.08c0.06-0.02 0.14 0.02 0.19-0.03 0.03-0.03 0.02-0.07 0.05-0.1q0.03-0.03 0.06-0.06 0.01-0.02 0.03-0.03c0.01-0.02 0.05-0.07 0.06-0.02q0 0 0 0.01c0 0.02-0.04 0.01-0.03 0.03q0.02 0.02 0.05 0 0.07 0.01 0.15-0.01 0.03-0.02 0.06-0.03 0.04-0.02 0.08-0.05 0.02-0.02 0.03-0.05 0.01-0.03 0.02-0.06 0.02-0.02 0.05-0.04c0.05-0.03 0.12 0 0.17-0.03 0.04-0.03 0.05-0.09 0.1-0.12q0.02-0.01 0.04-0.02 0.01-0.01 0.03-0.03 0-0.02 0.02-0.03 0.01-0.01 0.03-0.03 0.04-0.01 0.08-0.02 0.03 0 0.05-0.01 0.02-0.01 0.02-0.03-0.01-0.02-0.03-0.02-0.05-0.01-0.09 0-0.05 0.02-0.09 0.04-0.09 0.04-0.19 0.06-0.1 0.01-0.2 0.03-0.06 0.03-0.12 0.06-0.12 0.04-0.25 0.05c-0.02 0-0.07 0-0.06 0.01zm7.05 3.17q0.06-0.07 0.14-0.05 0.02 0.01 0.04 0.01 0.06 0.02 0.11-0.02 0.01-0.01 0.02-0.02 0.02 0 0.04 0.02 0.03 0.02 0.06 0.04 0.04 0.01 0.09 0.02 0.06 0.02 0.11 0.05 0.02 0.01 0.03 0.03c0.03 0.01 0.07-0.01 0.11 0q0.04 0 0.09 0 0.04 0 0.08 0 0.04 0.01 0.09 0 0.01-0.01 0.03-0.03 0.02-0.04 0.02-0.09 0.01-0.04 0-0.07c-0.02-0.03-0.06-0.03-0.1-0.05q-0.02-0.01-0.04-0.02-0.04-0.04-0.09-0.07-0.03 0-0.06 0-0.08 0-0.13-0.05-0.01-0.01-0.02-0.03-0.03-0.04-0.08-0.08-0.02 0-0.05-0.01c-0.06-0.01-0.15 0.08-0.18 0q0-0.01 0-0.02c-0.03-0.05-0.09-0.03-0.14 0q-0.01 0.01-0.01 0.02-0.03 0.01-0.07 0.02-0.01 0.01-0.02 0.02c-0.03 0.01-0.07 0.05-0.08 0q0-0.01 0.01-0.02 0.01-0.02 0.04-0.01 0.02-0.01 0.02-0.01 0.02-0.01 0.03-0.02 0.01-0.01 0.01-0.02c0.02-0.01 0.05 0.01 0.06-0.01 0.02-0.02-0.02-0.04-0.01-0.06q0.03-0.03 0.08-0.01c0.02 0.01 0.02 0.04 0.04 0.04q0.01 0.01 0.03 0c0.04 0 0.11 0.03 0.13-0.02q0-0.03 0-0.05 0-0.05-0.01-0.09-0.02-0.03-0.06-0.05c-0.03-0.01-0.05-0.05-0.08-0.04q-0.01 0.01-0.03 0.02-0.04 0.02-0.08 0.03-0.03 0.02-0.06 0.04-0.04 0-0.07 0.01c-0.03 0.02 0 0.07-0.02 0.1q-0.02 0.01-0.04 0.03-0.04 0.02-0.09 0-0.01 0-0.01-0.01-0.01-0.01-0.01-0.02 0 0-0.01-0.01-0.01-0.01-0.02-0.02-0.03 0-0.05 0-0.02 0-0.03 0c-0.03-0.02 0-0.05-0.01-0.07q-0.02-0.03-0.05-0.04-0.04-0.02-0.08 0.01 0 0.01 0 0.02-0.01 0.02-0.01 0.05 0.01 0.04 0.01 0.08c-0.01 0.05-0.08 0.05-0.09 0.09q0 0.02 0 0.03 0 0.04-0.01 0.07-0.02 0.03-0.03 0.06-0.03 0.07-0.03 0.15-0.02 0.06 0 0.12 0.01 0.01 0.02 0.02c0.05 0.07 0.14 0.08 0.21 0.1q0.04 0.02 0.09 0.03 0.04 0.01 0.08 0.01 0.05-0.01 0.08-0.04 0.01-0.07 0.06-0.11zm-12.17 2.4l-0.01 0.09-0.02 0.18-0.14 0.16-0.13-0.1-0.05-0.28q-0.05-0.05-0.11-0.03c-0.05 0.01-0.05 0.06-0.07 0.1q-0.06 0.07-0.09 0.15c-0.01 0.03-0.06 0.06-0.01 0.09 0.02 0.01 0.04-0.03 0.06-0.03q0.02-0.02 0.04-0.03 0.03-0.01 0.07 0.01c0.05 0.02 0.04 0.09 0.06 0.14 0.01 0.04 0.04 0.09 0.02 0.14q-0.01 0.02-0.02 0.04c-0.03 0.06-0.04 0.13 0.02 0.16 0.05 0.04 0.11-0.06 0.16-0.03q0.04 0.02 0.04 0.06 0 0.03-0.03 0.06-0.03 0.03-0.06 0.06-0.01 0.05 0 0.09c0.04 0.11 0.18 0.06 0.26 0.03q0.01 0 0.01-0.01c0.06-0.02 0.09 0.04 0.13 0.06 0.08 0.04 0.14 0.13 0.24 0.14q0.04 0 0.08 0c0.04 0 0.1 0.04 0.13 0 0.07-0.07-0.05-0.11-0.11-0.13-0.03-0.02-0.06 0.01-0.1 0q-0.12-0.04-0.17-0.15c-0.03-0.05-0.02-0.1-0.04-0.15-0.04-0.08-0.17-0.11-0.2-0.2q-0.02-0.05-0.02-0.11 0.02-0.08 0.06-0.15 0.05-0.04 0.09-0.09 0.06-0.14 0.03-0.29c-0.01-0.06 0.01-0.14-0.05-0.16-0.12-0.03-0.18 0.13-0.07 0.18zm7.51-3.45q0.05-0.02 0.1-0.03 0.03 0 0.07-0.02 0.02 0 0.03-0.01 0.05-0.01 0.1 0 0.06 0 0.12 0 0.03 0 0.07 0.01 0.03 0 0.07 0 0.05 0 0.1-0.01 0.02-0.01 0.03-0.02 0.01-0.03 0.01-0.07 0-0.01 0-0.03 0.02-0.02 0.04-0.03 0.02-0.01 0.04-0.02 0.02-0.02 0.01-0.05 0.01-0.03 0-0.07 0 0 0-0.01-0.03-0.03-0.09-0.03-0.02 0.01-0.04 0.01c-0.03-0.02-0.01-0.05-0.01-0.07q0-0.03-0.01-0.05c-0.01-0.03-0.07-0.03-0.1-0.06q-0.03-0.04-0.06-0.09-0.01-0.03-0.03-0.06-0.01-0.01-0.02-0.02-0.04-0.02-0.05-0.05 0-0.03 0.02-0.05 0.01 0 0.03-0.01 0.01 0 0.03-0.01 0.01-0.02 0-0.04 0.02-0.04 0-0.07c-0.03-0.03-0.07 0.03-0.1 0q0-0.02-0.01-0.04-0.03-0.02-0.08 0-0.04-0.01-0.08 0-0.01 0.02-0.02 0.03 0 0.02-0.01 0.03-0.01 0.01-0.03 0.01c-0.03 0.01-0.05 0.03-0.07 0.01-0.02-0.02 0.02-0.03 0.02-0.06q0-0.01-0.01-0.02c-0.02-0.05-0.06-0.01-0.09 0.01q-0.03 0.02-0.04 0.06c-0.02 0.04-0.13 0.1-0.05 0.13 0.06 0.01 0.04-0.09 0.08-0.1q0.01 0 0.02 0c0.05 0 0.03 0.08 0.07 0.09q0.02 0 0.04 0c0.03 0.02-0.01 0.04-0.03 0.05q-0.03 0.01-0.05 0.02c-0.03 0.04 0.04 0.02 0.07 0.03 0.02 0.01 0.08 0 0.08 0.04q0 0.02-0.01 0.03 0 0.02 0 0.03c0.01 0.02 0.05 0 0.06 0.01q0.01 0.02 0.01 0.04c0.01 0.02 0.06 0 0.07 0.03q0 0.02 0 0.04 0 0.02 0 0.04 0.01 0.03 0 0.04-0.01 0.01-0.03 0.01-0.03 0-0.07 0c-0.03 0.01-0.07-0.01-0.09 0.02q-0.01 0.03-0.01 0.06-0.01 0.03-0.01 0.06c-0.01 0.02-0.05 0.04-0.03 0.07 0.01 0.01 0.03 0 0.04 0.02q0 0.01 0 0.02-0.01 0.01-0.03 0.02-0.02 0-0.03 0.02 0 0.02 0 0.03c-0.02 0.03-0.05 0.02-0.07 0.03q-0.01 0.01-0.02 0.02 0.01 0.05 0.05 0.03zm0.01-0.45q0.01 0 0.02-0.01 0.01-0.03 0-0.05-0.01-0.03-0.01-0.07c0-0.02 0.03-0.03 0.02-0.05q-0.03-0.03-0.07-0.02-0.05 0.01-0.1 0.02-0.03 0.01-0.05 0.01-0.05 0-0.08 0.01 0 0.03-0.01 0.05-0.01 0.03-0.04 0.02 0 0 0-0.01-0.03-0.03-0.07-0.01-0.02 0.01-0.02 0.03-0.01 0.02 0 0.05c-0.01 0.03-0.06 0.05-0.04 0.09 0.02 0.04 0.21-0.09 0.1 0.02q-0.01 0.01-0.03 0.02-0.04 0.02-0.07 0.05-0.02 0.01-0.04 0.03-0.01 0.01-0.01 0.04 0 0.02 0.02 0.03 0.02 0.01 0.06 0 0.06 0 0.12 0 0.01 0 0.03-0.01 0.02 0 0.03 0 0-0.01 0.01-0.02 0.01-0.01 0.01-0.02 0.01-0.01 0.02-0.01 0.02-0.02 0.05-0.02 0.04 0 0.08-0.01 0.02 0 0.03-0.01 0.01 0 0.01-0.02-0.01-0.03 0-0.06 0-0.04 0.03-0.07zm4.27 2.54l0.04-0.05-0.07-0.01-0.06 0.01h-0.08l-0.1-0.05h-0.07v-0.04l-0.04-0.01-0.05 0.01 0.1 0.12 0.01 0.02 0.03 0.02h0.11l0.08-0.02zm-1.69-0.46l-0.13 0.02h-0.06l-0.02 0.04 0.11 0.05 0.06 0.04 0.04 0.06 0.06-0.01 0.08-0.07-0.1-0.09h-0.07zm2.62 0.52l0.01 0.02 0.01-0.04 0.02-0.04 0.02-0.02 0.02-0.02v-0.01l0.01-0.02 0.01-0.02 0.01-0.01v-0.03-0.01h-0.03l-0.01 0.01-0.01 0.01-0.02 0.02-0.05 0.01-0.07-0.01h-0.03l-0.02 0.1 0.01 0.01 0.06 0.02v0.03zm-3.39-0.96l-0.01-0.07v-0.09l-0.01-0.05-0.01-0.02-0.06 0.05v0.16l0.02 0.05-0.02 0.03-0.06 0.03 0.02 0.12 0.02 0.09 0.11 0.02 0.04-0.1 0.01-0.06 0.03-0.03-0.01-0.03z"/>
				<path id="&lt;Path&gt;" class="s3" d="m77.15 63.94c0 0 4.1-20.47 27.28-7.59 0 0-20.01-10.18-27.28 7.59z"/>
				<path id="&lt;Path&gt;" class="s3" d="m88.98 54.87c0 0 14.36 10.9-1.27 22.97 0 0 11.74-10.98 1.27-22.97z"/>
				<path id="&lt;Path&gt;" class="s3" d="m61.52 97.93q-0.67-0.95-0.67-4.31v-3.9h-4.5v3.9q0 3.36-0.67 4.3-0.66 0.95-3.12 1.1v1.02h6.05 6.03v-1.02q-2.46-0.14-3.12-1.09z"/>
				<path id="&lt;Path&gt;" class="s3" d="m58.59 53.33h-6.03v1.03q2.46 0.14 3.12 1.09 0.67 0.94 0.67 4.31v30.65h4.5v-30.65q0-3.37 0.67-4.31 0.66-0.95 3.12-1.09v-1.03z"/>
			</g>
			<g id="&lt;Group&gt;">
				<g id="&lt;Group&gt;">
				</g>
				<g id="&lt;Group&gt;">
				</g>
				<g id="&lt;Group&gt;">
				</g>
				<g id="&lt;Group&gt;">
				</g>
			</g>
			<g id="&lt;Group&gt;">
				<g id="&lt;Group&gt;">
					<path id="&lt;Compound Path&gt;" class="s3" d="m228.98 82.07q-0.97 2.16-3.01 3.45-2.05 1.28-4.53 1.28-0.26 0-0.41 0-0.15-0.01-0.29-0.02-0.65 0.88-1.22 1.85-0.56 0.97-1.06 2.04l-0.17 0.09-0.23-0.12-0.05-0.17q0.3-0.88 0.83-1.84 0.52-0.96 1.27-1.98-1.92-0.21-3.1-1.28-1.19-1.07-1.2-2.51 0.01-1.95 2.27-3.31 2.25-1.36 5.69-1.36 3.63 0 5.67 1.84 2.06 1.85 2.06 5.08 0 1.11-0.24 2.35-0.23 1.24-0.7 2.59-0.55 1.54-1.29 2.85-0.75 1.32-1.63 2.31-1.51 1.71-3.37 2.69-1.84 0.98-3.51 0.99-1.3 0-2.04-0.58-0.74-0.58-0.74-1.57 0-1.13 1.01-2.06 1-0.94 2.54-1.19l0.13 0.08 0.04 0.2-0.04 0.16q-1.07 0.36-1.66 0.95-0.59 0.6-0.58 1.36 0 0.82 0.61 1.32 0.62 0.5 1.62 0.5 1.29 0 2.6-0.78 1.31-0.79 2.31-2.19 1.38-1.9 2.15-4.49 0.77-2.6 0.77-5.37 0-0.93-0.13-1.72-0.13-0.79-0.37-1.44zm-0.13-0.3q-0.62-1.44-2.04-2.2-1.41-0.77-3.42-0.76-2.61-0.01-4.31 1.14-1.7 1.13-1.71 2.81 0 1.18 0.85 2.03 0.83 0.84 2.37 1.21 1.98-2.08 3.97-3.18 1.98-1.09 3.82-1.08 0.07-0.01 0.23 0.01 0.15 0.01 0.24 0.02zm-1.58 0.82q-1.42 0.17-2.94 1.07-1.52 0.9-3 2.42h0.47q1.98 0 3.43-0.92 1.44-0.93 2.04-2.57z"/>
					<path id="&lt;Compound Path&gt;" class="s1" d="m235.54 87.12v1.48q0.96-0.86 1.57-1.14 0.62-0.27 1.22-0.27 0.38 0 1.07 0.17 0.67 0.17 0.89 0.84 0.21 0.65 0.25 0.88 0.04 0.23 0.04 0.72v5.65q0 0.8 0.15 1.04 0.16 0.23 0.88 0.24l-0.02 0.71q-0.41 0.01-1.09-0.05-0.68-0.04-0.82-0.04-0.32 0-1.07 0.04-0.75 0.06-0.77 0.05v-0.7q0.68-0.05 0.85-0.3 0.16-0.25 0.16-1.25v-4.86q0-1.27-0.42-1.59-0.44-0.32-0.85-0.32-0.33 0-0.56 0.1-0.43 0.13-0.7 0.34-0.28 0.2-0.73 0.65v5.4q0.01 0.66 0.03 1 0.03 0.34 0.11 0.51 0.14 0.2 0.47 0.26 0.34 0.05 0.42 0.05l-0.03 0.71q-0.93-0.09-1.34-0.1-0.42-0.01-0.68-0.01-0.29 0-1.02 0.06-0.72 0.05-0.76 0.05v-0.71q0.44 0 0.66-0.09 0.22-0.08 0.32-0.3 0.1-0.21 0.1-0.79v-6.22q0-0.19-0.04-0.38-0.04-0.2-0.17-0.31-0.14-0.12-0.42-0.17-0.29-0.05-0.48-0.05l0.03-0.68q0.82 0 1.2-0.14 0.39-0.12 0.92-0.48z"/>
					<path id="&lt;Compound Path&gt;" class="s1" d="m245.17 87.25h1.5v0.76h-1.5v6.83q0 0.33 0.01 0.61 0.01 0.28 0.1 0.46 0.08 0.19 0.25 0.32 0.16 0.14 0.4 0.14 0.33-0.01 0.56-0.17 0.24-0.16 0.45-0.4l0.47 0.45q-0.47 0.54-0.96 0.91-0.5 0.38-1.31 0.37-0.37 0-0.59-0.07-0.21-0.08-0.53-0.35-0.32-0.25-0.43-0.77-0.11-0.53-0.11-1.4v-6.93h-1.09l0.02-0.76q0.21-0.08 0.37-0.15 0.15-0.07 0.38-0.23 0.22-0.15 0.5-0.5 0.27-0.36 0.48-0.82 0.22-0.47 0.33-1.07 0.12-0.6 0.12-0.87h0.58z"/>
					<path id="&lt;Compound Path&gt;" class="s1" d="m249.62 91.91q0 1.06 0.19 1.93 0.2 0.85 0.61 1.41 0.4 0.55 0.71 0.77 0.3 0.22 0.57 0.27 0.27 0.05 0.49 0.05 0.8 0 1.27-0.52 0.46-0.52 0.75-1.07l0.6 0.26q-0.4 0.99-1.15 1.76-0.75 0.77-2.23 0.76-1.05 0.01-1.82-0.52-0.77-0.52-1.25-1.63-0.46-1.11-0.47-2.86 0-2.74 1.01-4.07 1.01-1.34 2.57-1.34 1.05 0 1.8 0.54 0.75 0.53 1.05 1.31 0.3 0.78 0.37 1.42 0.07 0.63 0.07 1.5zm3.39-0.74q0-0.67-0.05-1.18-0.05-0.51-0.2-0.96-0.14-0.44-0.44-0.8-0.29-0.36-0.87-0.36-0.41 0-0.65 0.16-0.23 0.15-0.52 0.51-0.29 0.36-0.42 0.93-0.13 0.58-0.24 1.7z"/>
					<path id="&lt;Compound Path&gt;" class="s1" d="m258.52 87.23l0.1 2.3 0.57-1.07q0.35-0.55 0.68-0.85 0.34-0.29 0.86-0.29 0.99 0 0.99 1.05 0.01 0.05-0.01 0.17-0.01 0.11-0.09 0.39-0.09 0.28-0.32 0.47-0.23 0.18-0.53 0.18-0.23 0-0.42-0.16-0.18-0.15-0.27-0.23-0.09-0.09-0.24-0.09-0.33 0-0.6 0.4-0.26 0.38-0.35 0.6-0.1 0.22-0.27 0.71v4.34 0.69q0 0.3 0.06 0.5 0.07 0.19 0.23 0.3 0.16 0.12 0.5 0.16 0.34 0.05 0.6 0.04v0.66q-0.5 0-0.96-0.04-0.46-0.05-1.12-0.09-0.48 0-1.21 0.06-0.74 0.07-0.85 0.07v-0.66q0.18 0 0.38-0.02 0.2-0.02 0.38-0.13 0.17-0.1 0.24-0.4 0.07-0.3 0.07-0.87v-5.47q0-0.47-0.03-0.73-0.03-0.25-0.17-0.48-0.13-0.23-0.89-0.23l0.02-0.68q0.89-0.09 1.29-0.2 0.38-0.11 0.83-0.4z"/>
					<path id="&lt;Compound Path&gt;" class="s1" d="m265.11 87.12v1.48q0.97-0.86 1.58-1.14 0.62-0.27 1.22-0.27 0.39 0 1.06 0.17 0.68 0.17 0.9 0.84 0.21 0.65 0.25 0.88 0.04 0.23 0.04 0.72v5.65q0 0.8 0.15 1.04 0.16 0.23 0.88 0.24l-0.02 0.71q-0.41 0.01-1.09-0.05-0.68-0.04-0.82-0.04-0.32 0-1.07 0.04-0.75 0.06-0.77 0.05v-0.7q0.68-0.05 0.85-0.3 0.16-0.25 0.16-1.25v-4.86q0-1.27-0.43-1.59-0.42-0.32-0.84-0.32-0.33 0-0.56 0.1-0.43 0.13-0.7 0.34-0.28 0.2-0.72 0.65v5.4q-0.01 0.66 0.02 1 0.03 0.34 0.11 0.51 0.14 0.2 0.47 0.26 0.34 0.05 0.42 0.05l-0.03 0.71q-0.93-0.09-1.35-0.1-0.41-0.01-0.67-0.01-0.29 0-1.01 0.06-0.74 0.05-0.77 0.05v-0.71q0.44 0 0.66-0.09 0.23-0.08 0.32-0.3 0.1-0.21 0.1-0.79v-6.22q0-0.19-0.04-0.38-0.03-0.2-0.18-0.31-0.13-0.12-0.41-0.17-0.29-0.05-0.48-0.05l0.03-0.68q0.81 0 1.2-0.14 0.39-0.12 0.92-0.48z"/>
					<path id="&lt;Compound Path&gt;" class="s1" d="m278.67 95.75q0.02 0.21 0.08 0.39 0.06 0.19 0.31 0.19 0.23-0.01 0.58-0.27l0.39 0.56q-0.53 0.43-0.93 0.65-0.4 0.23-0.89 0.23-0.41 0-0.68-0.16-0.26-0.17-0.35-0.37-0.08-0.19-0.14-0.44-0.07-0.25-0.06-0.29l-0.31 0.27q-0.64 0.54-1.2 0.76-0.55 0.23-1.03 0.23-0.35 0-0.57-0.06-0.21-0.06-0.63-0.31-0.43-0.25-0.76-0.9-0.33-0.65-0.32-1.43-0.01-0.68 0.28-1.4 0.29-0.72 0.8-1.05 0.51-0.33 0.84-0.48 0.33-0.16 0.77-0.27 0.44-0.11 0.91-0.19 0.48-0.07 1.22-0.15v-1.52q0-0.6-0.11-1.01-0.11-0.41-0.44-0.65-0.33-0.24-0.74-0.24-0.27 0-0.54 0.11-0.26 0.1-0.49 0.39-0.24 0.28-0.24 0.8 0 0.41-0.06 0.6-0.05 0.18-0.29 0.36-0.23 0.17-0.6 0.17-0.29 0-0.59-0.19-0.3-0.2-0.3-0.72-0.01-0.42 0.27-0.82 0.39-0.65 1.19-1.02 0.79-0.36 1.71-0.36 0.31 0 0.53 0.03 0.23 0.03 0.64 0.13 0.42 0.09 0.95 0.47 0.52 0.38 0.64 0.94 0.12 0.55 0.14 0.78 0.02 0.22 0.02 0.64zm-1.69-3.9l-0.82 0.14q-1.3 0.27-1.8 0.88-0.5 0.62-0.49 1.46 0 0.46 0.14 0.92 0.15 0.46 0.46 0.64 0.31 0.19 0.51 0.25 0.21 0.06 0.42 0.06 0.43 0 0.76-0.17 0.33-0.18 0.82-0.54z"/>
					<path id="&lt;Compound Path&gt;" class="s1" d="m283.25 87.25h1.5v0.76h-1.5v6.83q0 0.33 0.01 0.61 0.01 0.28 0.1 0.46 0.09 0.19 0.25 0.32 0.17 0.14 0.4 0.14 0.33-0.01 0.56-0.17 0.24-0.16 0.45-0.4l0.46 0.45q-0.46 0.54-0.95 0.91-0.5 0.38-1.31 0.37-0.38 0-0.59-0.07-0.21-0.08-0.54-0.35-0.32-0.25-0.42-0.77-0.11-0.53-0.11-1.4v-6.93h-1.09l0.02-0.76q0.21-0.08 0.37-0.15 0.15-0.07 0.38-0.23 0.22-0.15 0.5-0.5 0.26-0.36 0.48-0.82 0.22-0.47 0.33-1.07 0.12-0.6 0.12-0.87h0.58z"/>
					<path id="&lt;Compound Path&gt;" class="s1" d="m288.66 87.17v7.97q0 0.54 0.03 0.95 0.05 0.42 0.27 0.56 0.22 0.14 0.43 0.16 0.2 0.01 0.42 0.01l-0.02 0.65q-1.04-0.1-1.89-0.1-0.35 0-1.01 0.05-0.66 0.06-0.99 0.05v-0.65q0.64 0 0.85-0.18 0.22-0.17 0.22-0.83v-6.26q-0.01-0.72-0.2-0.9-0.2-0.19-0.87-0.19v-0.68q0.86 0 1.27-0.13 0.43-0.14 0.97-0.48zm0.23-2.65q0 0.66-0.35 0.97-0.35 0.31-0.7 0.31-0.46 0-0.72-0.36-0.27-0.36-0.27-0.86 0-0.51 0.25-0.89 0.26-0.38 0.74-0.38 0.49 0 0.77 0.33 0.28 0.35 0.28 0.88z"/>
					<path id="&lt;Compound Path&gt;" class="s1" d="m296.98 87.89q0.73 0.64 1.13 1.62 0.4 0.99 0.41 2.72 0 1.08-0.18 1.87-0.17 0.78-0.7 1.72-0.52 0.93-1.39 1.34-0.87 0.42-1.66 0.42-1.15-0.01-1.84-0.54-0.69-0.54-1.05-1.12-0.36-0.59-0.6-1.46-0.25-0.88-0.25-2.01 0-1.01 0.27-2.18 0.26-1.17 1.17-2.13 0.43-0.42 0.97-0.74 0.55-0.32 1.33-0.32 0.62 0 1.19 0.14 0.57 0.14 1.2 0.67zm-3.54 0.67q-0.34 0.54-0.53 1.54-0.18 0.99-0.18 2.41 0 2 0.46 3.16 0.45 1.16 1.42 1.16 0.39 0 0.64-0.17 0.33-0.16 0.56-0.45 0.23-0.28 0.42-0.89 0.19-0.61 0.29-1.36 0.11-0.75 0.11-1.8 0-1.23-0.19-2.2-0.18-0.96-0.44-1.38-0.27-0.42-0.62-0.62-0.36-0.2-0.81-0.16-0.27 0-0.55 0.17-0.28 0.16-0.58 0.59z"/>
					<path id="&lt;Compound Path&gt;" class="s1" d="m302.37 87.12v1.48q0.97-0.86 1.59-1.14 0.61-0.27 1.21-0.27 0.39 0 1.07 0.17 0.67 0.17 0.89 0.84 0.21 0.65 0.25 0.88 0.04 0.23 0.04 0.72v5.65q0 0.8 0.15 1.04 0.16 0.23 0.88 0.24l-0.02 0.71q-0.41 0.01-1.08-0.05-0.69-0.04-0.82-0.04-0.33 0-1.08 0.04-0.75 0.06-0.76 0.05v-0.7q0.67-0.05 0.84-0.3 0.16-0.25 0.16-1.25v-4.86q0-1.27-0.42-1.59-0.44-0.32-0.85-0.32-0.32 0-0.56 0.1-0.43 0.13-0.7 0.34-0.28 0.2-0.72 0.65v5.4q0 0.66 0.03 1 0.02 0.34 0.1 0.51 0.14 0.2 0.48 0.26 0.33 0.05 0.41 0.05l-0.03 0.71q-0.93-0.09-1.35-0.1-0.41-0.01-0.67-0.01-0.29 0-1.02 0.06-0.72 0.05-0.76 0.05v-0.71q0.44 0 0.67-0.09 0.22-0.08 0.31-0.3 0.1-0.21 0.1-0.79v-6.22q0-0.19-0.04-0.38-0.04-0.2-0.17-0.31-0.14-0.12-0.42-0.17-0.28-0.05-0.48-0.05l0.03-0.68q0.82 0 1.21-0.14 0.38-0.12 0.91-0.48z"/>
					<path id="&lt;Compound Path&gt;" class="s1" d="m315.93 95.75q0.01 0.21 0.08 0.39 0.05 0.19 0.31 0.19 0.23-0.01 0.58-0.27l0.39 0.56q-0.53 0.43-0.92 0.65-0.4 0.23-0.89 0.23-0.41 0-0.68-0.16-0.27-0.17-0.35-0.37-0.1-0.19-0.15-0.44-0.06-0.25-0.06-0.29l-0.31 0.27q-0.64 0.54-1.19 0.76-0.55 0.23-1.04 0.23-0.35 0-0.56-0.06-0.22-0.06-0.64-0.31-0.43-0.25-0.76-0.9-0.33-0.65-0.33-1.43 0-0.68 0.3-1.4 0.29-0.72 0.8-1.05 0.5-0.33 0.83-0.48 0.33-0.16 0.77-0.27 0.44-0.11 0.91-0.19 0.48-0.07 1.22-0.15v-1.52q0-0.6-0.11-1.01-0.11-0.41-0.44-0.65-0.33-0.24-0.74-0.24-0.27 0-0.53 0.11-0.27 0.1-0.5 0.39-0.23 0.28-0.23 0.8 0 0.41-0.06 0.6-0.06 0.18-0.29 0.36-0.24 0.17-0.61 0.17-0.29 0-0.59-0.19-0.3-0.2-0.3-0.72 0-0.42 0.27-0.82 0.39-0.65 1.19-1.02 0.8-0.36 1.71-0.36 0.31 0 0.54 0.03 0.22 0.03 0.64 0.13 0.41 0.09 0.94 0.47 0.53 0.38 0.65 0.94 0.11 0.55 0.13 0.78 0.02 0.22 0.02 0.64zm-1.69-3.9l-0.82 0.14q-1.29 0.27-1.79 0.88-0.5 0.62-0.5 1.46 0 0.46 0.14 0.92 0.15 0.46 0.46 0.64 0.31 0.19 0.52 0.25 0.2 0.06 0.42 0.06 0.42 0 0.75-0.17 0.33-0.18 0.82-0.54z"/>
					<path id="&lt;Compound Path&gt;" class="s1" d="m320.69 81.66v13.9q-0.01 0.82 0.16 1.02 0.16 0.21 0.9 0.21v0.65q-0.44 0.01-1.15-0.05-0.71-0.04-0.83-0.04-0.37 0-0.68 0.01-0.31 0.01-1.26 0.08v-0.65q0.23 0 0.47 0 0.35-0.04 0.46-0.21 0.12-0.16 0.16-0.49 0.04-0.33 0.04-0.57v-11.81q0-0.1-0.01-0.19-0.01-0.08-0.07-0.28-0.06-0.21-0.32-0.29-0.25-0.08-0.75-0.08l0.02-0.68q0.93 0 1.35-0.1 0.41-0.11 0.95-0.43z"/>
				</g>
				<g id="&lt;Group&gt;">
					<path id="&lt;Compound Path&gt;" class="s3" d="m332.25 86.42q-0.53 0.03-0.98 0.05-0.47 0.02-0.88 0.02-3.23 0-5.11-1.21-1.87-1.21-1.87-3.29-0.01-1.85 1.24-3.02 1.24-1.17 3.26-1.17 0.81 0 1.85 0.22 1.04 0.2 3.37 0.9 2.75 0.8 4.28 1.13 1.54 0.32 2.47 0.32 1.13 0 2.3-0.37 1.16-0.38 2.39-1.15h0.18l0.17 0.19-0.03 0.23q-1.52 1.15-3.32 1.74-1.79 0.57-3.87 0.57-1.97 0-5.26-0.91-0.39-0.1-0.57-0.15-0.63-0.18-1.73-0.47-2.85-0.81-3.64-0.81-1.1 0-1.79 0.77-0.7 0.78-0.69 1.97-0.01 1.79 1.73 2.87 1.73 1.07 4.66 1.08 0.45 0 0.99-0.03 0.53-0.04 1.19-0.11 0.12-0.18 0.31-0.48 1.03-1.7 1.74-2.08l2.31-1.29 0.05 0.12q-0.44 0.56-1.06 1.43-0.61 0.86-1.35 1.97 0.93-0.12 1.95-0.35 1.01-0.23 2.04-0.55l0.13 0.06 0.09 0.29-0.12 0.18q-0.82 0.32-1.98 0.6-1.15 0.28-2.56 0.5-1.14 2.06-1.7 3.89-0.57 1.83-0.57 3.41-0.01 1.97 0.97 3.13 0.97 1.16 2.59 1.16 1.1 0 2.12-0.58 1.02-0.58 1.88-1.69 0.68-0.86 1.05-1.89 0.38-1.03 0.38-2.01 0-0.88-0.38-1.38-0.38-0.5-1.03-0.5-1.22 0-2.42 1.15-1.2 1.16-1.92 3.06l-0.13 0.09-0.22-0.03-0.1-0.19q0.63-2.01 1.98-3.3 1.35-1.29 2.75-1.29 1.11 0 1.79 0.77 0.68 0.77 0.68 2.06 0 1.27-0.73 2.62-0.72 1.33-1.98 2.34-0.75 0.62-1.74 0.97-0.97 0.34-1.96 0.34-2.24 0-3.67-1.63-1.42-1.63-1.42-4.18 0-1.49 0.48-3.06 0.5-1.56 1.41-3.03z"/>
					<path id="&lt;Compound Path&gt;" class="s1" d="m346.69 87.23l0.1 2.3 0.58-1.07q0.34-0.55 0.67-0.85 0.34-0.29 0.86-0.29 1 0 1 1.05 0 0.05-0.01 0.17-0.01 0.11-0.1 0.39-0.09 0.28-0.32 0.47-0.23 0.18-0.53 0.18-0.23 0-0.41-0.16-0.19-0.15-0.28-0.23-0.08-0.09-0.24-0.09-0.33 0-0.59 0.4-0.26 0.38-0.36 0.6-0.1 0.22-0.27 0.71v4.34 0.69q0 0.3 0.07 0.5 0.07 0.19 0.23 0.3 0.15 0.12 0.49 0.16 0.35 0.05 0.6 0.04v0.66q-0.49 0-0.96-0.04-0.46-0.05-1.11-0.09-0.49 0-1.22 0.06-0.73 0.07-0.85 0.07v-0.66q0.19 0 0.39-0.02 0.19-0.02 0.37-0.13 0.18-0.1 0.25-0.4 0.06-0.3 0.06-0.87v-5.47q0-0.47-0.03-0.73-0.03-0.25-0.16-0.48-0.14-0.23-0.89-0.23l0.01-0.68q0.9-0.09 1.29-0.2 0.39-0.11 0.84-0.4z"/>
					<path id="&lt;Compound Path&gt;" class="s1" d="m357.12 95.75q0.02 0.21 0.08 0.39 0.06 0.19 0.31 0.19 0.23-0.01 0.58-0.27l0.39 0.56q-0.53 0.43-0.93 0.65-0.39 0.23-0.89 0.23-0.41 0-0.67-0.16-0.27-0.17-0.35-0.37-0.09-0.19-0.15-0.44-0.06-0.25-0.06-0.29l-0.31 0.27q-0.64 0.54-1.19 0.76-0.56 0.23-1.04 0.23-0.35 0-0.56-0.06-0.22-0.06-0.64-0.31-0.43-0.25-0.76-0.9-0.33-0.65-0.32-1.43-0.01-0.68 0.29-1.4 0.29-0.72 0.79-1.05 0.51-0.33 0.84-0.48 0.33-0.16 0.76-0.27 0.44-0.11 0.92-0.19 0.48-0.07 1.22-0.15v-1.52q0-0.6-0.11-1.01-0.11-0.41-0.43-0.65-0.34-0.24-0.74-0.24-0.28 0-0.54 0.11-0.27 0.1-0.5 0.39-0.23 0.28-0.23 0.8 0 0.41-0.06 0.6-0.06 0.18-0.29 0.36-0.24 0.17-0.61 0.17-0.29 0-0.59-0.19-0.3-0.2-0.3-0.72 0-0.42 0.27-0.82 0.39-0.65 1.19-1.02 0.79-0.36 1.71-0.36 0.31 0 0.53 0.03 0.23 0.03 0.65 0.13 0.42 0.09 0.94 0.47 0.53 0.38 0.64 0.94 0.12 0.55 0.14 0.78 0.02 0.22 0.02 0.64zm-1.69-3.9l-0.82 0.14q-1.29 0.27-1.79 0.88-0.51 0.62-0.5 1.46 0 0.46 0.15 0.92 0.14 0.46 0.45 0.64 0.31 0.19 0.52 0.25 0.2 0.06 0.41 0.06 0.43 0 0.76-0.17 0.33-0.18 0.82-0.54z"/>
					<path id="&lt;Compound Path&gt;" class="s1" d="m366.41 81.67v14.2q0 0.57 0.21 0.76 0.21 0.19 0.78 0.19v0.59q-0.45 0-0.92 0-0.46 0-0.91 0h-0.9l0.03-1.4-0.36 0.39q-0.54 0.54-1.1 0.8-0.57 0.27-1.11 0.27-0.41 0-0.79-0.16-0.38-0.17-0.92-0.64-0.55-0.47-0.91-1.65-0.36-1.17-0.36-2.61 0-0.62 0.11-1.61 0.1-1.01 0.71-2.02 0.6-1.02 1.31-1.37 0.71-0.35 1.35-0.35 0.74 0 1.17 0.25 0.42 0.25 0.9 0.68v-3.37q-0.01-0.38-0.03-0.85-0.02-0.47-0.17-0.63-0.15-0.15-0.36-0.21-0.22-0.06-0.53-0.06v-0.68l0.96-0.06q0.48-0.07 0.72-0.16 0.24-0.09 0.59-0.3zm-1.71 7.38q-0.33-0.64-0.77-0.88-0.43-0.25-0.86-0.25-0.18 0-0.42 0.05-0.24 0.05-0.67 0.32-0.42 0.27-0.77 1.19-0.34 0.91-0.34 2.4 0 0.45 0.08 1.2 0.08 0.75 0.35 1.54 0.27 0.79 0.73 1.14 0.45 0.34 1 0.34 0.61 0 0.94-0.29 0.34-0.29 0.73-0.77z"/>
					<path id="&lt;Compound Path&gt;" class="s1" d="m371.15 87.17v7.97q0 0.54 0.04 0.95 0.04 0.42 0.26 0.56 0.23 0.14 0.43 0.16 0.21 0.01 0.42 0.01l-0.02 0.65q-1.03-0.1-1.88-0.1-0.36 0-1.01 0.05-0.67 0.06-1 0.05v-0.65q0.64 0 0.86-0.18 0.21-0.17 0.21-0.83v-6.26q0-0.72-0.19-0.9-0.21-0.19-0.88-0.19v-0.68q0.87 0 1.28-0.13 0.42-0.14 0.97-0.48zm0.23-2.65q0 0.66-0.35 0.97-0.35 0.31-0.7 0.31-0.47 0-0.72-0.36-0.27-0.36-0.27-0.86 0-0.51 0.25-0.89 0.26-0.38 0.74-0.38 0.49 0 0.77 0.33 0.28 0.35 0.28 0.88z"/>
					<path id="&lt;Compound Path&gt;" class="s1" d="m375.97 87.12v1.48q0.97-0.86 1.58-1.14 0.61-0.27 1.21-0.27 0.38 0 1.07 0.17 0.67 0.17 0.89 0.84 0.21 0.65 0.25 0.88 0.04 0.23 0.04 0.72v5.65q0 0.8 0.15 1.04 0.16 0.23 0.88 0.24l-0.02 0.71q-0.41 0.01-1.09-0.05-0.68-0.04-0.81-0.04-0.33 0-1.08 0.04-0.74 0.06-0.77 0.05v-0.7q0.68-0.05 0.85-0.3 0.16-0.25 0.16-1.25v-4.86q0.01-1.27-0.42-1.59-0.44-0.32-0.85-0.32-0.32 0-0.56 0.1-0.43 0.13-0.7 0.34-0.27 0.2-0.72 0.65v5.4q0 0.66 0.03 1 0.03 0.34 0.1 0.51 0.14 0.2 0.47 0.26 0.34 0.05 0.42 0.05l-0.02 0.71q-0.94-0.09-1.36-0.1-0.41-0.01-0.67-0.01-0.29 0-1.02 0.06-0.73 0.05-0.76 0.05v-0.71q0.44 0 0.66-0.09 0.23-0.08 0.32-0.3 0.1-0.21 0.1-0.79v-6.22q0-0.19-0.04-0.38-0.04-0.2-0.17-0.31-0.14-0.12-0.42-0.17-0.28-0.05-0.48-0.05l0.03-0.68q0.82 0 1.21-0.14 0.38-0.12 0.91-0.48z"/>
					<path id="&lt;Compound Path&gt;" class="s1" d="m391.03 87.72v0.91l-1.52-0.07q0.33 0.55 0.47 1.04 0.13 0.48 0.13 0.98 0.01 0.43-0.09 0.85-0.1 0.4-0.39 0.96-0.29 0.56-1.08 1.02-0.79 0.46-1.64 0.46-0.29 0-0.44-0.02-0.16-0.02-0.66-0.13l-0.54 0.57q-0.16 0.16-0.26 0.32-0.1 0.15-0.1 0.32 0 0.32 0.3 0.42 0.3 0.11 0.66 0.1 1.37 0.14 2.68 0.13 0.72 0 1.28 0.24 0.57 0.24 0.84 0.79 0.27 0.56 0.27 1.15 0 0.41-0.12 0.84-0.11 0.44-0.63 1.2-0.51 0.76-1.57 1.25-1.05 0.5-2.37 0.5-0.91 0-1.67-0.24-0.77-0.23-1.15-0.66-0.39-0.42-0.49-0.72-0.09-0.3-0.1-0.59 0.01-0.43 0.23-0.85 0.23-0.42 0.79-0.9l0.66-0.49q-0.6-0.13-0.93-0.44-0.33-0.32-0.33-0.85 0-0.7 0.55-1.22 0.55-0.51 1.37-1.1-0.68-0.41-1.18-1.08-0.51-0.67-0.51-1.87 0-1.52 0.93-2.48 0.93-0.98 2.35-0.98 0.7 0 1.16 0.2 0.46 0.2 0.88 0.5zm-6.59 11.18q0 0.25 0.07 0.46 0.06 0.22 0.22 0.47 0.16 0.24 0.7 0.55 0.55 0.31 1.35 0.31 1.38 0 2.04-0.63 0.67-0.62 0.82-0.97 0.16-0.35 0.16-0.62 0-0.31-0.12-0.5-0.13-0.18-0.39-0.33-0.27-0.16-1.47-0.28-1.19-0.13-2.58-0.13-0.35 0.38-0.57 0.73-0.23 0.35-0.23 0.94zm1.53-10.88q-0.7 0.58-0.7 2.47v0.6q0.07 0.78 0.34 1.43 0.26 0.65 1.22 0.65 0.23 0 0.4-0.03 0.16-0.03 0.52-0.32 0.37-0.28 0.46-0.94 0.1-0.65 0.12-1.24 0-1.63-0.34-2.13-0.34-0.51-0.66-0.64-0.32-0.14-0.59-0.14-0.19 0-0.37 0.05-0.17 0.06-0.4 0.24z"/>
				</g>
				<g id="&lt;Group&gt;">
					<path id="&lt;Compound Path&gt;" class="s1" d="m156.48 95.75q0.02 0.21 0.08 0.39 0.06 0.19 0.31 0.19 0.23-0.01 0.59-0.27l0.38 0.56q-0.52 0.43-0.92 0.65-0.4 0.23-0.89 0.23-0.41 0-0.67-0.16-0.27-0.17-0.36-0.37-0.09-0.19-0.15-0.44-0.06-0.25-0.06-0.29l-0.31 0.27q-0.64 0.54-1.19 0.76-0.55 0.23-1.04 0.23-0.35 0-0.56-0.06-0.21-0.06-0.63-0.31-0.43-0.25-0.77-0.9-0.32-0.65-0.32-1.43 0-0.68 0.29-1.4 0.29-0.72 0.8-1.05 0.5-0.33 0.83-0.48 0.33-0.16 0.77-0.27 0.44-0.11 0.92-0.19 0.47-0.07 1.21-0.15v-1.52q0-0.6-0.1-1.01-0.11-0.41-0.44-0.65-0.33-0.24-0.74-0.24-0.28 0-0.54 0.11-0.26 0.1-0.5 0.39-0.23 0.28-0.23 0.8 0 0.41-0.05 0.6-0.07 0.18-0.3 0.36-0.24 0.17-0.6 0.17-0.29 0-0.6-0.19-0.3-0.2-0.3-0.72 0-0.42 0.28-0.82 0.38-0.65 1.18-1.02 0.8-0.36 1.71-0.36 0.32 0 0.54 0.03 0.22 0.03 0.64 0.13 0.42 0.09 0.94 0.47 0.53 0.38 0.65 0.94 0.11 0.55 0.14 0.78 0.01 0.22 0.01 0.64zm-1.69-3.9l-0.82 0.14q-1.29 0.27-1.79 0.88-0.5 0.62-0.5 1.46 0 0.46 0.15 0.92 0.15 0.46 0.45 0.64 0.32 0.19 0.52 0.25 0.2 0.06 0.42 0.06 0.43 0 0.76-0.17 0.33-0.18 0.81-0.54z"/>
					<path id="&lt;Compound Path&gt;" class="s1" d="m160.87 88.15q0.72-0.53 1.3-0.78 0.57-0.25 1.16-0.25 0.56 0 0.96 0.2 0.4 0.19 0.88 0.6 0.48 0.42 0.95 1.51 0.46 1.09 0.46 2.69 0 1.07-0.28 2.33-0.3 1.25-1.31 2.16-1.01 0.9-2.29 0.9-0.66 0-1.18-0.18-0.51-0.19-1.23-0.6-0.2 0.16-0.33 0.34-0.13 0.18-0.23 0.3h-0.55v-13.21q0-0.47-0.05-0.71-0.04-0.24-0.22-0.39-0.18-0.16-0.82-0.15v-0.69q0.66 0 1.07-0.08 0.42-0.08 0.74-0.24l0.39-0.23h0.57zm0 7.7l0.3 0.29q0.31 0.27 0.66 0.43 0.36 0.15 0.76 0.15 1.01 0 1.61-1.06 0.6-1.06 0.6-2.97 0-0.54-0.15-1.74-0.16-1.19-0.79-1.79-0.63-0.59-0.94-0.7-0.31-0.1-0.58-0.1-0.41 0-0.72 0.13-0.31 0.14-0.75 0.49z"/>
					<path id="&lt;Compound Path&gt;" class="s1" d="m170.9 87.93q-0.35 0-0.55 0.09-0.21 0.08-0.21 0.4 0 0.15 0.05 0.34 0.05 0.19 0.07 0.32l1.68 6.75 1.67-6.42q0.06-0.28 0.11-0.5 0.04-0.24 0.04-0.39 0-0.04-0.02-0.16-0.02-0.14-0.1-0.28-0.09-0.15-0.62-0.15v-0.64q0.31 0 0.94 0 0.61 0 0.93 0h0.85v0.64q-0.15 0-0.29 0-0.29 0.07-0.46 0.37-0.16 0.3-0.32 0.8-0.15 0.48-0.31 1.05l-2.43 8.49q-0.32 0.99-0.37 1.12-0.06 0.14-0.33 0.68-0.27 0.55-0.78 0.9-0.5 0.35-1.2 0.35-0.72 0-1.27-0.46-0.54-0.44-0.54-1.19 0-0.48 0.28-0.81 0.28-0.35 0.73-0.34 0.37-0.01 0.61 0.25 0.25 0.24 0.25 0.65v0.29q-0.04 0.08-0.06 0.18-0.02 0.09-0.02 0.19 0 0.29 0.33 0.29 0.21 0 0.36-0.11 0.15-0.12 0.51-0.55 0.36-0.43 1.02-2.71h-0.87l-2.11-7.98-0.19-0.73q-0.12-0.45-0.34-0.59-0.23-0.14-0.69-0.14v-0.64q0.29 0 0.87 0.04 0.58 0.04 0.9 0.04 0.31 0 0.93-0.04 0.62-0.04 0.95-0.04z"/>
					<path id="&lt;Compound Path&gt;" class="s1" d="m182.8 95.75q0.02 0.21 0.07 0.39 0.06 0.19 0.31 0.19 0.24-0.01 0.59-0.27l0.39 0.56q-0.53 0.43-0.93 0.65-0.4 0.23-0.89 0.23-0.41 0-0.67-0.16-0.27-0.17-0.36-0.37-0.08-0.19-0.15-0.44-0.05-0.25-0.05-0.29l-0.31 0.27q-0.64 0.54-1.2 0.76-0.55 0.23-1.03 0.23-0.35 0-0.56-0.06-0.22-0.06-0.64-0.31-0.43-0.25-0.76-0.9-0.33-0.65-0.33-1.43 0-0.68 0.29-1.4 0.29-0.72 0.8-1.05 0.51-0.33 0.84-0.48 0.33-0.16 0.77-0.27 0.44-0.11 0.91-0.19 0.48-0.07 1.22-0.15v-1.52q0-0.6-0.11-1.01-0.11-0.41-0.44-0.65-0.33-0.24-0.74-0.24-0.27 0-0.53 0.11-0.27 0.1-0.5 0.39-0.23 0.28-0.23 0.8-0.01 0.41-0.06 0.6-0.06 0.18-0.3 0.36-0.23 0.17-0.6 0.17-0.29 0-0.59-0.19-0.3-0.2-0.3-0.72 0-0.42 0.27-0.82 0.39-0.65 1.19-1.02 0.79-0.36 1.71-0.36 0.31 0 0.53 0.03 0.23 0.03 0.65 0.13 0.41 0.09 0.94 0.47 0.52 0.38 0.64 0.94 0.12 0.55 0.14 0.78 0.02 0.22 0.02 0.64zm-1.69-3.9l-0.82 0.14q-1.3 0.27-1.79 0.88-0.5 0.62-0.5 1.46 0 0.46 0.14 0.92 0.15 0.46 0.46 0.64 0.31 0.19 0.51 0.25 0.21 0.06 0.42 0.06 0.43 0 0.76-0.17 0.33-0.18 0.82-0.54z"/>
					<path id="&lt;Compound Path&gt;" class="s1" d="m187.47 87.12v1.48q0.96-0.86 1.58-1.14 0.61-0.27 1.21-0.27 0.39 0 1.07 0.17 0.68 0.17 0.89 0.84 0.21 0.65 0.25 0.88 0.04 0.23 0.04 0.72v5.65q0 0.8 0.16 1.04 0.15 0.23 0.87 0.24l-0.02 0.71q-0.41 0.01-1.09-0.05-0.68-0.04-0.81-0.04-0.33 0-1.08 0.04-0.74 0.06-0.77 0.05v-0.7q0.69-0.05 0.85-0.3 0.16-0.25 0.16-1.25v-4.86q0-1.27-0.43-1.59-0.43-0.32-0.83-0.32-0.33 0-0.57 0.1-0.43 0.13-0.7 0.34-0.28 0.2-0.72 0.65v5.4q0 0.66 0.03 1 0.03 0.34 0.1 0.51 0.14 0.2 0.48 0.26 0.33 0.05 0.41 0.05l-0.03 0.71q-0.93-0.09-1.35-0.1-0.41-0.01-0.67-0.01-0.29 0-1.01 0.06-0.73 0.05-0.77 0.05v-0.71q0.44 0 0.66-0.09 0.23-0.08 0.32-0.3 0.1-0.21 0.1-0.79v-6.22q0-0.19-0.04-0.38-0.04-0.2-0.18-0.31-0.13-0.12-0.41-0.17-0.28-0.05-0.47-0.05l0.02-0.68q0.82 0 1.2-0.14 0.4-0.12 0.92-0.48z"/>
					<path id="&lt;Compound Path&gt;" class="s1" d="m201.02 95.75q0.02 0.21 0.08 0.39 0.05 0.19 0.31 0.19 0.23-0.01 0.58-0.27l0.39 0.56q-0.53 0.43-0.92 0.65-0.4 0.23-0.89 0.23-0.42 0-0.68-0.16-0.27-0.17-0.36-0.37-0.08-0.19-0.14-0.44-0.06-0.25-0.06-0.29l-0.31 0.27q-0.64 0.54-1.19 0.76-0.56 0.23-1.04 0.23-0.35 0-0.56-0.06-0.22-0.06-0.64-0.31-0.43-0.25-0.76-0.9-0.33-0.65-0.33-1.43 0-0.68 0.29-1.4 0.3-0.72 0.8-1.05 0.51-0.33 0.84-0.48 0.33-0.16 0.77-0.27 0.44-0.11 0.91-0.19 0.48-0.07 1.22-0.15v-1.52q0-0.6-0.11-1.01-0.11-0.41-0.44-0.65-0.33-0.24-0.73-0.24-0.28 0-0.54 0.11-0.27 0.1-0.5 0.39-0.23 0.28-0.23 0.8 0 0.41-0.06 0.6-0.06 0.18-0.29 0.36-0.24 0.17-0.61 0.17-0.29 0-0.59-0.19-0.3-0.2-0.3-0.72 0-0.42 0.27-0.82 0.39-0.65 1.19-1.02 0.8-0.36 1.71-0.36 0.31 0 0.53 0.03 0.23 0.03 0.65 0.13 0.42 0.09 0.94 0.47 0.53 0.38 0.64 0.94 0.12 0.55 0.14 0.78 0.02 0.22 0.02 0.64zm-1.69-3.9l-0.82 0.14q-1.29 0.27-1.8 0.88-0.49 0.62-0.49 1.46 0 0.46 0.14 0.92 0.15 0.46 0.46 0.64 0.31 0.19 0.52 0.25 0.2 0.06 0.41 0.06 0.43 0 0.76-0.17 0.33-0.18 0.82-0.54z"/>
					<path id="&lt;Compound Path&gt;" class="s1" d="m205.69 81.66l0.02 7q0.78-0.69 1.38-1.03 0.59-0.34 1.41-0.34 0.56 0 1.21 0.3 0.64 0.3 0.9 1.22 0.07 0.21 0.09 0.44 0.02 0.25 0.02 0.55v5.84q0 0.74 0.19 0.98 0.18 0.23 0.86 0.23v0.66q-0.45 0-1.2-0.05-0.75-0.05-0.91-0.05-0.26 0-0.93 0.05-0.66 0.05-0.69 0.05v-0.66q0.62 0 0.79-0.24 0.18-0.25 0.18-0.97v-4.87q0-0.62-0.03-1-0.03-0.38-0.25-0.73-0.21-0.35-0.47-0.47-0.26-0.11-0.51-0.11-0.26 0-0.56 0.1-0.31 0.08-0.62 0.28-0.31 0.2-0.86 0.73v6.05q0 0.08 0 0.27 0 0.18 0.06 0.39 0.04 0.3 0.25 0.44 0.2 0.13 0.69 0.13v0.64q-0.92-0.08-1.31-0.09-0.38-0.01-0.62-0.01-0.34 0-1.08 0.06-0.75 0.06-0.79 0.06l0.02-0.66q0.66 0.01 0.86-0.22 0.21-0.21 0.21-0.93v-11.54q0-0.82-0.16-1.03-0.16-0.2-0.91-0.29v-0.65q0.87 0 1.29-0.12 0.42-0.1 0.93-0.41z"/>
					<path id="&lt;Compound Path&gt;" class="s3" d="m148.91 94.74c-0.71 0.66-1.76 2.09-2.84 2.09q-0.92 0-1.61-2.53-0.13-0.46-0.19-0.69-0.51-1.77-1.04-2.82-0.51-1.06-1.16-1.66 3.08-2.11 4.72-4.13 1.64-2.03 1.64-3.73 0-1.08-0.64-1.71-0.64-0.63-1.74-0.63-1.26 0-2.9 0.97-1.65 0.97-3.89 3.02-0.29-2.22-2.57-3.59-2.28-1.37-5.77-1.37-3.45 0-5.56 1.44-2.11 1.44-2.11 3.73 0 1.82 1.34 2.92 1.34 1.09 3.57 1.09 1.85-0.01 3.83-0.62 1.97-0.62 3.92-1.82l0.06-0.22-0.09-0.17-0.18-0.03q-1.97 1.1-3.65 1.63-1.67 0.53-3.12 0.53-1.86 0-2.96-0.95-1.1-0.95-1.1-2.57 0.01-1.88 1.66-3.11 1.66-1.24 4.26-1.24 2.94 0 4.77 1.49 1.83 1.48 2.17 4.14-2.66 2.8-4.11 5.92-1.45 3.11-1.45 6.02 0 0.82 0.06 1.15 0.07 0.34 0.22 0.51h0.12q0.97-0.86 1.95-2.22 0.97-1.37 1.79-2.98 1.47-2.83 2.25-5.13 0.78-2.31 0.78-3.75v-0.08q1.75-1.71 3.09-2.55 1.34-0.84 2.31-0.85 0.91 0 1.49 0.55 0.58 0.55 0.58 1.41-0.01 1.48-1.43 3.28-1.42 1.79-3.84 3.31-0.26-0.07-0.5-0.1-0.24-0.04-0.45-0.04-0.69 0-1.24 0.28-0.55 0.28-0.73 0.72l-0.36 0.92 0.05 0.11q0.3-0.01 1.94-0.65 0.47-0.18 0.74-0.27 0.29 0.32 0.71 1.3 0.41 0.98 0.92 2.57 0.05 0.18 0.16 0.52 1.09 3.48 2.74 3.48 0.98 0 2.08-0.97c0.21-0.2 0.47-0.46 1.31-1.08zm-12.4-4q-0.95 2.59-2.62 4.71-0.09-0.31-0.14-0.71-0.05-0.4-0.05-0.86 0-2.39 1.03-4.67 1.02-2.27 2.95-4.15-0.21 3.07-1.17 5.68z"/>
				</g>
				<path id="&lt;Compound Path&gt;" class="s1" d="m142.8 59.09v0.24q0.07 1.28-1.12 3.01h-1.05q-2.86 0-3.98-1.72-0.79-1.26-0.86-3.85-0.29-0.33-0.82-0.33-1.88 0-3.29 2.16-1.02 1.99-2.04 3.99-1.12 2.16-2.34 2.16-2.44 0-3.65-3.61-0.86-2.54-0.86-5.28 0-5.49 4.9-7.76 1.45-0.66 3.76-0.66 0.59 0 1.79 0.04 1.2 0.04 1.76 0.04 2.47 0 3.89-0.76-0.27 1.2-3.16 1.53-0.89 0.08-4.09 0.08-3.68 0-5.66 2.16-1.78 1.94-1.78 5.11 0 1.75 0.76 3.5 1.02 2.27 2.73 2.27 0.93 0 2.18-2.13 2.04-3.44 2.47-3.99 1.67-2.16 3.65-2.16 1.15 0 1.35 0.91 0.03 0.05 0.03 1.67 0 3.35 4.31 3.38 0.56 0 1.12 0zm-2.63-16.62q-0.2 0.24-2.54 2.48-0.59-0.16-1.48-0.84-1.08-0.85-1.41-1.01-0.86 0.71-2.67 2.07-0.85-0.32-2.99-1.94 0.92-1.53 2.79-2.54 0.6 0.27 1.39 0.93 0.95 0.79 1.31 1.01 0.6-0.35 1.35-1.09 0.96-0.93 1.25-1.15 1.16 0.63 3 2.08z"/>
				<path id="&lt;Compound Path&gt;" class="s1" d="m156.56 59.31q-0.2 0.79-0.36 1.56-0.3 1.04-0.76 1.47h-1.05q-1.61 0-3-0.49-1.61-0.55-2.2-1.61-0.63-1.21-0.96-1.21-0.16 0-0.52 0.66-1.52 2.65-6.13 2.65h-1.08q0-0.76 0.46-1.73 0.36-0.76 0.76-1.52 0.26 0 0.67-0.04 0.41-0.04 0.58-0.04 4.44 0 6.84-3.99 0.3 0.02 0.79 1.09 0.63 1.28 1.26 1.89 1.08 1.01 2.86 1.01 0.1 0 0.34 0.02 0.25 0.03 0.38 0.03 1.16 0 1.12 0.25zm-2.63 9.05q-1.25 1.61-2.7 2.4-0.53-0.3-1.25-0.98-0.83-0.77-1.19-1.04-0.49 0.14-1.53 1.08-1.03 0.94-1.59 0.94-0.2 0-1.17-1-0.97-1.01-0.97-1.17 0-0.33 1.25-1.22 1.25-0.9 1.78-1.01 0.22 0.36 0.93 0.92 0.71 0.56 0.94 0.94h0.27q0.42-0.46 1.21-1.07 1.16-0.84 1.32-0.95 0.69 0.11 1.45 0.93 0.98 1.06 1.25 1.23z"/>
				<path id="&lt;Compound Path&gt;" class="s1" d="m154.95 62.34l-0.07-0.54q-0.06-0.55 0.17-1.37 0.36-1.23 0.39-1.37h0.59q2.34 0 4.51-1.23 2.41-1.37 2.41-3.2 0-2.18-1.25-4.89-1.25-2.3-2.5-4.59l-0.17 0.08q0.03 0.79 0.17 3.2 0.09 2.02 0.09 3.22 0 2.35-0.36 4.19-0.2 0.13-0.39 0.13-0.17 0-0.17-0.68 0-1.56-0.33-4.66-0.33-3.11-0.33-4.66 0-4 1.86-6.65 1.19 0.69 3.07 6.13 1.82 5.14 1.82 6.94 0 2.79-1.68 5.69-1.94 3.31-4.8 4.02-0.92 0.24-3.03 0.24z"/>
				<path id="&lt;Compound Path&gt;" class="s1" d="m178.32 56.57q0 1.4-0.76 3.15-0.06 0.11-1.51 3.01-2.17 4.31-8.99 4.31-0.85 0-2.2-0.24-1.75-0.36-2.18-0.41v-0.17q3.99 0.06 8.07-1.91 4.41-2.1 5.46-5.14 0.04-0.05 0.04-0.25 0-0.49-0.5-1.14-0.06 0.02-0.85 0.43-0.53 0.25-0.96 0.25-0.46 0-0.74-0.44-0.28-0.43-0.28-0.85 0-0.62 1.2-2.22 1.2-1.6 1.86-1.6 1.09 0 1.78 1.2 0.56 0.99 0.56 2.02z"/>
				<path id="&lt;Compound Path&gt;" class="s1" d="m198.46 59.09l0.04 0.46q0 0.53-0.33 1.37-0.4 1.07-0.5 1.42h-1.18q-2.64 0-3.52-1.8-0.53-1.04-0.6-3.61-0.52 0.9-1.77 4.46-0.96 2.81-2.27 4.01-1.85 1.75-5.4 1.75-1.35 0-3.06-0.51-1.45-0.48-2.93-0.94v-0.24h1.02q5.66 0.11 8.46-1.86 2.04-1.45 3.42-4.95 2.11-5.3 2.73-6.37h0.46q0.23 0.58 0.5 2.8 0.23 1.92 0.89 2.75 0.95 1.26 3.25 1.26 0.6 0 0.79 0z"/>
				<path id="&lt;Compound Path&gt;" class="s1" d="m197.18 62.34l-0.07-0.54q-0.06-0.55 0.17-1.37 0.36-1.23 0.39-1.37h0.6q2.33 0 4.51-1.23 2.4-1.37 2.4-3.2 0-2.18-1.25-4.89-1.25-2.3-2.5-4.59l-0.17 0.08q0.03 0.79 0.17 3.2 0.09 2.02 0.09 3.22 0 2.35-0.36 4.19-0.19 0.13-0.39 0.13-0.17 0-0.17-0.68 0-1.56-0.33-4.66-0.33-3.11-0.33-4.66 0-4 1.86-6.65 1.19 0.69 3.07 6.13 1.82 5.14 1.82 6.94 0 2.79-1.68 5.69-1.94 3.31-4.8 4.02-0.92 0.24-3.03 0.24z"/>
				<path id="&lt;Compound Path&gt;" class="s1" d="m213.57 44.54q-0.1 0.58-0.1 1.29 0 0.63 0.1 1.89 0.1 1.25 0.1 1.88 0 4.98-0.95 6.7h-0.3v-1.12q0.06-1.56-0.22-4.4-0.31-3.06-0.31-4.43 0-4.29 1.95-6.95 1.87 1.26 3.52 6.16 1.45 4.34 1.45 6.99 0 4.71-2.37 7.55-2.74 3.31-8.17 3.31-1.12 0-2.37-0.14 0.46-0.41 1.62-0.74 1.38-0.38 1.74-0.57 3.65-1.91 5.33-3.42 2.64-2.32 2.64-4.97 0-1.94-1.37-4.62-1.15-2.22-2.29-4.41z"/>
				<path id="&lt;Compound Path&gt;" class="s1" d="m238.06 47q-1.02-0.62-3.06-1.85-0.72 0.79-2.4 2.15-0.69-0.21-1.65-0.84-1.15-0.79-1.55-0.99 0.56-0.84 2.64-2.57 0.62 0.28 1.54 0.91 1.09 0.73 1.52 0.95 0.49-0.3 1.27-1.02 0.77-0.73 1.13-0.97h0.27q0.92 0.6 2.69 1.83 0.1 0.05 0.1 0.11 0 0.25-1.03 1.15-1.04 0.9-1.47 1.14zm2.24 8.48q0 1.31-1.35 3.66-1.38 2.44-2.63 3.07-0.5 0.21-1.81 0.21-1.58 0-2.59-0.72-1-0.72-1-2.01 0-1.09 0.9-2.49 0.91-1.39 2-2.1-0.63-0.36-0.63-0.82 0-0.41 0.82-1.53 0.79-1.04 1.25-1.34 0.43 0.82 2.9 1.8 2.14 0.85 2.14 2.27zm-2.04 2.95q0 0.14-0.2-0.79-0.29-1.34-3.32-2.08-1.35 1.34-1.35 1.83 0 0.58 0.59 1.15 0.59 0.58 1.28 0.71 0.14 0.03 0.76 0.03 2.24 0 2.24-0.85z"/>
				<path id="&lt;Compound Path&gt;" class="s1" d="m256.03 53.24q0 0.74-0.39 1.67-0.36 0.79-0.72 1.58-0.5-0.33-1.16-0.33l-0.89 0.25q-0.72 0.87-2.92 4.65-1.75 2.92-3.36 4.18-2.31 1.83-5.76 1.83-4.05 0-6.49-0.85 5.47-1.03 8.5-2.29 4.11-1.78 6.48-4.95 1.09-1.89 2.21-3.8 1.61-2.46 3.48-2.46 0.27 0 0.65 0.16 0.37 0.17 0.37 0.36z"/>
				<path id="&lt;Compound Path&gt;" class="s1" d="m267.03 62.34h-1.38q-2.37 0-3.76-1.67-1.21-1.47-1.25-3.55-0.03-3.53-0.03-8.12 0-4.57 0.03-6.53 0.99-1.48 2.34-2.9l0.2 0.08q0.03 8.89 0 16.02-0.03 1.45 1.05 2.43 1.09 0.99 2.8 0.96-0.07 0 1.28 0 0.23 0 0.23 0.17 0 0.52-1.51 3.11z"/>
				<path id="&lt;Compound Path&gt;" class="s1" d="m286.28 59.06q-0.06 1.24-1.28 3.29-0.85 0-2.65 0.16-1.79 0.16-2.71 0.16-2.64 0-2.64-1.18 0-0.08 0.76-2.24-1.68 0.74-3.36 1.48-2.01 0.87-3.52 1.15-0.59 1.61-1.58 4.86-0.59-0.02-0.59-0.43 0-0.72 0.42-2.05 0.47-1.48 0.53-2.05-0.39 0-1.2 0.08-0.81 0.08-1.2 0.08-0.66 0-1.12-0.16 0-0.69 0.36-1.64 0.5-1.34 0.53-1.51 0.53 0 1.31 0 0.8 0 1.09 0 1.12 0 2.17-2.02 1.62-3.14 2.08-3.72 1.61-1.99 4.08-2 1.42 0 3.31 1.69 1.89 1.68 3.5 1.68 0.3 0 0.63 0-0.17 1.47-1.58 3.11h-0.86q-1.71-0.08-3.82 0.86 0.56 0.48 1.62 0.48 0.69 0 2.19-0.02 1.49-0.03 2.25-0.03 0.53 0 1.28-0.03zm-7.5-3.12q-0.89-1.06-2.14-1.06-0.13 0-0.69 0.19-1.98 0.77-3.52 3.5 2.76-0.55 6.35-2.63zm0.43 11.79q-1.35 1.67-2.57 2.49-0.89-0.69-2.8-1.89 0.3-0.6 1.12-1.37 0.69-0.63 1.38-1.23 0.63 0.22 1.5 0.99 0.87 0.76 1.37 1.01z"/>
				<path id="&lt;Compound Path&gt;" class="s1" d="m299.98 58.98q-0.23 0.88-0.43 1.72-0.36 1.18-0.82 1.64h-1.05q-1.62 0-3-0.49-1.61-0.55-2.21-1.61-0.62-1.21-0.95-1.21-0.17 0-0.53 0.66-1.51 2.65-6.12 2.65h-1.09q0-0.76 0.46-1.75 0.37-0.76 0.76-1.53 0.26 0 0.68-0.04 0.41-0.04 0.57-0.04 4.45 0 6.85-3.96 0.3 0.02 0.79 1.09 0.62 1.28 1.25 1.89 1.09 1.01 2.86 1.01 0.1 0 0.35 0.04 0.25 0.04 0.38 0.04 0.26 0 1.25-0.11zm-2.5-11.76q-1.25 1.62-2.7 2.44-0.53-0.33-1.25-0.99-0.83-0.79-1.19-1.04-0.49 0.11-1.53 1.04-1.04 0.93-1.59 0.93-0.2 0-1.17-0.98-0.97-0.99-0.97-1.15 0-0.36 1.25-1.23 1.25-0.88 1.77-1.01 0.23 0.35 0.94 0.91 0.71 0.56 0.94 0.95h0.26q0.43-0.47 1.22-1.04 1.15-0.88 1.32-0.99 0.69 0.11 1.45 0.93 0.98 1.07 1.25 1.23z"/>
				<path id="&lt;Compound Path&gt;" class="s1" d="m310.22 59.23q-0.01 0.38-0.27 1.5-0.26 1.26-0.52 1.61h-1.85q-2.3 0-3.95-2.92-0.95 1.06-1.91 2.13-0.95 0.79-2.96 0.79-0.99 0-1.28-0.21 0.1-0.63 0.49-1.5 0.63-1.35 0.72-1.54 0.24 0 0.76 0 0.53 0 0.83 0 3.48 0 3.48-4.24 0-0.38 0-1.04 0-0.68 0-0.98 0-6.56-0.98-9.95 0.8-1.01 2.28-3.09 0.45 3.42 0.51 8.06 0-3.94 0 8.09 0 3.12 3.89 3.12 0.76 0 0.76 0.17z"/>
				<path id="&lt;Compound Path&gt;" class="s1" d="m308.93 62.34l-0.06-0.54q-0.07-0.55 0.16-1.37 0.36-1.23 0.4-1.37h0.59q2.34 0 4.51-1.23 2.4-1.37 2.4-3.2 0-2.18-1.25-4.89-1.25-2.3-2.5-4.59l-0.17 0.08q0.04 0.79 0.17 3.2 0.1 2.02 0.1 3.22 0 2.35-0.37 4.19-0.19 0.13-0.39 0.13-0.16 0-0.16-0.68-0.01-1.56-0.33-4.66-0.33-3.11-0.33-4.66 0-4 1.85-6.65 1.19 0.69 3.07 6.13 1.83 5.14 1.83 6.94 0 2.79-1.68 5.69-1.95 3.31-4.81 4.02-0.92 0.24-3.03 0.24z"/>
				<path id="&lt;Compound Path&gt;" class="s1" d="m350.37 59.28q0.1 1.57-0.92 3.06h-1.05q-2.87 0-3.98-1.81-0.8-1.29-0.86-3.93-0.3-0.35-0.82-0.35-1.88 0-3.3 2.16-1.02 2.03-2.04 4.03-1.12 2.17-2.33 2.17-2.44 0-3.66-3.63-0.85-2.52-0.85-5.25 0-5.53 4.9-7.8 1.45-0.65 3.75-0.65 0.6 0 1.8 0.05 1.2 0.06 1.76 0.06 2.47 0 3.88-0.77-0.26 1.21-3.16 1.51-0.89 0.1-4.08 0.1-3.69 0.01-5.66 2.14-1.78 1.94-1.78 5.14 0 1.72 0.76 3.47 1.02 2.3 2.73 2.3 0.92 0 2.18-2.16 2.04-3.45 2.46-4 1.68-2.13 3.66-2.13 1.15 0 1.35 0.91 0.03 0.03 0.03 1.7 0 1.68 1.25 2.64 1.15 0.85 3.06 0.85 0.89 0 0.92 0.19z"/>
				<path id="&lt;Compound Path&gt;" class="s1" d="m349.45 59.06h7.44l-1.32 3.28h-7.07z"/>
				<path id="&lt;Compound Path&gt;" class="s1" d="m355.87 62.34h-1.81q0.1-2 1.42-3.25h1.77q4.55 0.11 7.44-1.63v-0.22q0-0.44-0.23-1.1l-0.43-1.07q-0.29 0.41-0.56 0.63-0.09-0.57-0.1-1.45v-1.75q0.24-0.22 0.9-1.28 0.53-0.8 1.17-1.13 1.39 3.28 1.39 4.71 0 0.84-0.72 2.35-1.62 3.25-3.79 4.29-1.94 0.9-6.45 0.9zm9.38-19.49q-1.45 1.64-2.7 2.54-0.66-0.33-1.51-1.06-1.12-0.93-1.48-1.18 0.39-0.57 2.8-2.62 0.69 0.32 1.51 1.09 1.02 0.98 1.38 1.23z"/>
				<path id="&lt;Compound Path&gt;" class="s1" d="m378.81 62.34h-1.38q-2.37 0-3.75-1.67-1.22-1.47-1.25-3.55-0.04-3.53-0.04-8.12 0-4.57 0.04-6.53 0.98-1.48 2.33-2.9l0.2 0.08q0.03 8.89 0 16.02-0.03 1.45 1.06 2.43 1.08 0.99 2.79 0.96-0.06 0 1.29 0 0.23 0 0.23 0.17 0 0.52-1.52 3.11z"/>
				<path id="&lt;Compound Path&gt;" class="s1" d="m393.69 59.31q-0.2 0.79-0.36 1.56-0.3 1.04-0.76 1.47h-1.05q-1.61 0-3-0.49-1.61-0.55-2.2-1.61-0.63-1.21-0.96-1.21-0.16 0-0.52 0.66-1.52 2.65-6.13 2.65h-1.08q0-0.76 0.46-1.73 0.36-0.76 0.76-1.52 0.26 0 0.67-0.04 0.41-0.04 0.58-0.04 4.44 0 6.84-3.99 0.3 0.02 0.79 1.09 0.63 1.28 1.25 1.89 1.09 1.01 2.87 1.01 0.1 0 0.34 0.02 0.25 0.03 0.38 0.03 1.15 0 1.12 0.25zm-2.63 9.05q-1.25 1.61-2.7 2.4-0.53-0.3-1.25-0.98-0.82-0.77-1.19-1.04-0.49 0.14-1.53 1.08-1.03 0.94-1.59 0.94-0.2 0-1.17-1-0.97-1.01-0.97-1.17 0-0.33 1.25-1.22 1.25-0.9 1.78-1.01 0.23 0.36 0.93 0.92 0.71 0.56 0.94 0.94h0.26q0.43-0.46 1.22-1.07 1.15-0.84 1.32-0.95 0.69 0.11 1.45 0.93 0.99 1.06 1.25 1.23z"/>
				<path id="&lt;Compound Path&gt;" class="s1" d="m392.97 62.45q-0.96 0-1.81-0.11 0.1-2.02 1.41-3.28h1.78q4.54 0.11 7.44-1.61v-0.22q0-0.44-0.23-1.09l-0.43-1.07q-0.29 0.41-0.56 0.63-0.1-0.57-0.1-1.45v-1.75q0.23-0.22 0.9-1.28 0.53-0.8 1.16-1.13 1.4 3.28 1.4 4.71 0 0.84-0.73 2.35-1.64 3.28-3.78 4.34-1.98 0.96-6.45 0.96zm5.49 5.39q-1.02 1.09-1.28 1.36-0.79 0.74-1.51 1.21-0.73-0.8-2.34-2.27v-0.22q0.3-0.16 1.45-1.2 0.92-0.91 1.51-0.91 0.33 0 1.12 0.85 0.53 0.6 1.05 1.18z"/>
				<path id="&lt;Compound Path&gt;" class="s1" d="m421.31 53.24q0 0.74-0.4 1.67-0.36 0.79-0.72 1.58-0.5-0.33-1.15-0.33l-0.89 0.25q-0.73 0.87-2.93 4.65-1.75 2.92-3.36 4.18-2.3 1.83-5.76 1.83-4.05 0-6.48-0.85 5.46-1.03 8.49-2.29 4.11-1.78 6.48-4.95 1.09-1.89 2.21-3.8 1.61-2.46 3.49-2.46 0.26 0 0.64 0.16 0.38 0.17 0.38 0.36z"/>
				<path id="LLC
" class="s4" aria-label="LLC"  d="m395.5 100v-12h3.1v9.7h5.5v2.3zm10 0v-12h3.1v9.7h5.4v2.3zm20.6-3.2v2.5q-0.9 0.5-1.8 0.7-0.9 0.2-1.9 0.2-3 0-4.8-1.6-1.8-1.7-1.8-4.6 0-2.9 1.8-4.6 1.8-1.7 4.8-1.7 1 0 1.9 0.3 0.9 0.2 1.8 0.6v2.5q-0.9-0.6-1.7-0.8-0.9-0.3-1.8-0.3-1.6 0-2.6 1.1-0.9 1-0.9 2.9 0 1.9 0.9 2.9 1 1.1 2.6 1.1 0.9 0 1.8-0.3 0.8-0.3 1.7-0.9z"/>
			</g>
		</g>
	</g>
</svg>